<svg xmlns="http://www.w3.org/2000/svg" xmlns:xlink="http://www.w3.org/1999/xlink" contentStyleType="text/css" data-diagram-type="CLASS" height="227px" preserveAspectRatio="none" style="width:464px;height:227px;background:#FFFFFF;" version="1.1" viewBox="0 0 464 227" width="464px" zoomAndPan="magnify"><defs/><g><!--class Coffee--><g id="elem_Coffee"><rect codeLine="2" fill="#F1F1F1" height="67.0679" id="Coffee" rx="2.5" ry="2.5" style="stroke:#181818;stroke-width:0.5;" width="116.5797" x="7" y="153"/><ellipse cx="40.827" cy="169" fill="#ADD1B2" rx="11" ry="11" style="stroke:#181818;stroke-width:1;"/><path d="M43.7958,174.6406 Q43.2176,174.9375 42.577,175.0781 Q41.9364,175.2344 41.2333,175.2344 Q38.7333,175.2344 37.4051,173.5938 Q36.0926,171.9375 36.0926,168.8125 Q36.0926,165.6875 37.4051,164.0313 Q38.7333,162.375 41.2333,162.375 Q41.9364,162.375 42.577,162.5313 Q43.2333,162.6875 43.7958,162.9844 L43.7958,165.7031 Q43.1708,165.125 42.577,164.8594 Q41.9833,164.5781 41.3583,164.5781 Q40.0145,164.5781 39.327,165.6563 Q38.6395,166.7188 38.6395,168.8125 Q38.6395,170.9063 39.327,171.9844 Q40.0145,173.0469 41.3583,173.0469 Q41.9833,173.0469 42.577,172.7813 Q43.1708,172.5 43.7958,171.9219 L43.7958,174.6406 Z " fill="#000000"/><text fill="#000000" font-family="sans-serif" font-size="14" lengthAdjust="spacing" textLength="42.7418" x="59.0108" y="174.432">Coffee</text><line style="stroke:#181818;stroke-width:0.5;" x1="8" x2="122.5797" y1="185" y2="185"/><line style="stroke:#181818;stroke-width:0.5;" x1="8" x2="122.5797" y1="193" y2="193"/><ellipse cx="18" cy="208.034" fill="#84BE84" rx="3" ry="3" style="stroke:#038048;stroke-width:1;"/><text fill="#000000" font-family="sans-serif" font-size="14" lengthAdjust="spacing" textLength="90.5797" x="27" y="211.9659">serve(): String</text></g><!--class CoffeeDecorator--><g id="elem_CoffeeDecorator"><rect codeLine="6" fill="#F1F1F1" height="86.1358" id="CoffeeDecorator" rx="2.5" ry="2.5" style="stroke:#181818;stroke-width:0.5;" width="185.7674" x="129.5" y="7"/><ellipse cx="168.178" cy="23" fill="#A9DCDF" rx="11" ry="11" style="stroke:#181818;stroke-width:1;"/><path d="M168.2874,18.3438 L167.1311,23.4219 L169.4592,23.4219 L168.2874,18.3438 Z M166.803,16.1094 L169.7874,16.1094 L173.1467,28.5 L170.6936,28.5 L169.928,25.4375 L166.6467,25.4375 L165.8967,28.5 L163.4592,28.5 L166.803,16.1094 Z " fill="#000000"/><text fill="#000000" font-family="sans-serif" font-size="14" font-style="italic" lengthAdjust="spacing" textLength="101.1496" x="187.4398" y="28.432">CoffeeDecorator</text><line style="stroke:#181818;stroke-width:0.5;" x1="130.5" x2="314.2674" y1="39" y2="39"/><rect fill="transparent" height="6" style="stroke:#C82930;stroke-width:1;" width="6" x="137.5" y="51.034"/><text fill="#000000" font-family="sans-serif" font-size="14" lengthAdjust="spacing" textLength="159.7674" x="149.5" y="57.9659">decoratedCoffee: Coffee</text><line style="stroke:#181818;stroke-width:0.5;" x1="130.5" x2="314.2674" y1="66.0679" y2="66.0679"/><ellipse cx="140.5" cy="81.1019" fill="#84BE84" rx="3" ry="3" style="stroke:#038048;stroke-width:1;"/><text fill="#000000" font-family="sans-serif" font-size="14" lengthAdjust="spacing" textLength="90.5797" x="149.5" y="85.0339">serve(): String</text></g><!--class MilkDecorator--><g id="elem_MilkDecorator"><rect codeLine="11" fill="#F1F1F1" height="67.0679" id="MilkDecorator" rx="2.5" ry="2.5" style="stroke:#181818;stroke-width:0.5;" width="125.6456" x="159.5" y="153"/><ellipse cx="174.5" cy="169" fill="#ADD1B2" rx="11" ry="11" style="stroke:#181818;stroke-width:1;"/><path d="M177.4688,174.6406 Q176.8906,174.9375 176.25,175.0781 Q175.6094,175.2344 174.9063,175.2344 Q172.4063,175.2344 171.0781,173.5938 Q169.7656,171.9375 169.7656,168.8125 Q169.7656,165.6875 171.0781,164.0313 Q172.4063,162.375 174.9063,162.375 Q175.6094,162.375 176.25,162.5313 Q176.9063,162.6875 177.4688,162.9844 L177.4688,165.7031 Q176.8438,165.125 176.25,164.8594 Q175.6563,164.5781 175.0313,164.5781 Q173.6875,164.5781 173,165.6563 Q172.3125,166.7188 172.3125,168.8125 Q172.3125,170.9063 173,171.9844 Q173.6875,173.0469 175.0313,173.0469 Q175.6563,173.0469 176.25,172.7813 Q176.8438,172.5 177.4688,171.9219 L177.4688,174.6406 Z " fill="#000000"/><text fill="#000000" font-family="sans-serif" font-size="14" lengthAdjust="spacing" textLength="93.6456" x="188.5" y="174.432">MilkDecorator</text><line style="stroke:#181818;stroke-width:0.5;" x1="160.5" x2="284.1456" y1="185" y2="185"/><line style="stroke:#181818;stroke-width:0.5;" x1="160.5" x2="284.1456" y1="193" y2="193"/><ellipse cx="170.5" cy="208.034" fill="#84BE84" rx="3" ry="3" style="stroke:#038048;stroke-width:1;"/><text fill="#000000" font-family="sans-serif" font-size="14" lengthAdjust="spacing" textLength="90.5797" x="179.5" y="211.9659">serve(): String</text></g><!--class SugarDecorator--><g id="elem_SugarDecorator"><rect codeLine="15" fill="#F1F1F1" height="67.0679" id="SugarDecorator" rx="2.5" ry="2.5" style="stroke:#181818;stroke-width:0.5;" width="136.8316" x="321" y="153"/><ellipse cx="336" cy="169" fill="#ADD1B2" rx="11" ry="11" style="stroke:#181818;stroke-width:1;"/><path d="M338.9688,174.6406 Q338.3906,174.9375 337.75,175.0781 Q337.1094,175.2344 336.4063,175.2344 Q333.9063,175.2344 332.5781,173.5938 Q331.2656,171.9375 331.2656,168.8125 Q331.2656,165.6875 332.5781,164.0313 Q333.9063,162.375 336.4063,162.375 Q337.1094,162.375 337.75,162.5313 Q338.4063,162.6875 338.9688,162.9844 L338.9688,165.7031 Q338.3438,165.125 337.75,164.8594 Q337.1563,164.5781 336.5313,164.5781 Q335.1875,164.5781 334.5,165.6563 Q333.8125,166.7188 333.8125,168.8125 Q333.8125,170.9063 334.5,171.9844 Q335.1875,173.0469 336.5313,173.0469 Q337.1563,173.0469 337.75,172.7813 Q338.3438,172.5 338.9688,171.9219 L338.9688,174.6406 Z " fill="#000000"/><text fill="#000000" font-family="sans-serif" font-size="14" lengthAdjust="spacing" textLength="104.8316" x="350" y="174.432">SugarDecorator</text><line style="stroke:#181818;stroke-width:0.5;" x1="322" x2="456.8316" y1="185" y2="185"/><line style="stroke:#181818;stroke-width:0.5;" x1="322" x2="456.8316" y1="193" y2="193"/><ellipse cx="332" cy="208.034" fill="#84BE84" rx="3" ry="3" style="stroke:#038048;stroke-width:1;"/><text fill="#000000" font-family="sans-serif" font-size="14" lengthAdjust="spacing" textLength="90.5797" x="341" y="211.9659">serve(): String</text></g><!--reverse link CoffeeDecorator to MilkDecorator--><g id="link_CoffeeDecorator_MilkDecorator"><path codeLine="19" d="M222.5,111.19 C222.5,130.45 222.5,134.91 222.5,152.85 " fill="transparent" id="CoffeeDecorator-backto-MilkDecorator" style="stroke:#181818;stroke-width:1;"/><polygon fill="transparent" points="222.5,93.19,216.5,111.19,228.5,111.19,222.5,93.19" style="stroke:#181818;stroke-width:1;"/></g><!--reverse link CoffeeDecorator to SugarDecorator--><g id="link_CoffeeDecorator_SugarDecorator"><path codeLine="20" d="M288.9001,104.4788 C312.8201,123.7388 326.68,134.91 348.96,152.85 " fill="transparent" id="CoffeeDecorator-backto-SugarDecorator" style="stroke:#181818;stroke-width:1;"/><polygon fill="transparent" points="274.88,93.19,285.1372,109.1521,292.663,99.8054,274.88,93.19" style="stroke:#181818;stroke-width:1;"/></g><!--link CoffeeDecorator to Coffee--><g id="link_CoffeeDecorator_Coffee"><path codeLine="21" d="M173.25,93.19 C150.77,112.45 129.1174,131.0074 108.1674,148.9474 " fill="transparent" id="CoffeeDecorator-to-Coffee" style="stroke:#181818;stroke-width:1;"/><polygon fill="#181818" points="103.61,152.85,113.0478,150.0344,107.4078,149.5978,107.8443,143.9578,103.61,152.85" style="stroke:#181818;stroke-width:1;"/></g><!--SRC=[Iyv9B2vMSCvFIqjDLQZcKW02RONYrAAoL0rDAuNWagBCl7IkMYwknAJYagB4v1A5P2GDBgd9-KM99Vb5K9sw2YaGaTGKY08hg4BSvaACyytCoKOt38_ouDBqn2AYrAExqwP6LnVLDknAK6t0KAEhQmVr6G00]--></g></svg>