<svg xmlns="http://www.w3.org/2000/svg" xmlns:xlink="http://www.w3.org/1999/xlink" contentStyleType="text/css" data-diagram-type="CLASS" height="265px" preserveAspectRatio="none" style="width:906px;height:265px;background:#FFFFFF;" version="1.1" viewBox="0 0 906 265" width="906px" zoomAndPan="magnify"><defs/><g><!--class Enviament--><g id="elem_Enviament"><rect codeLine="2" fill="#F1F1F1" height="105.2038" id="Enviament" rx="2.5" ry="2.5" style="stroke:#181818;stroke-width:0.5;" width="194.5174" x="189.5" y="153"/><ellipse cx="249.8118" cy="169" fill="#A9DCDF" rx="11" ry="11" style="stroke:#181818;stroke-width:1;"/><path d="M249.9212,164.3438 L248.7649,169.4219 L251.0931,169.4219 L249.9212,164.3438 Z M248.4368,162.1094 L251.4212,162.1094 L254.7806,174.5 L252.3274,174.5 L251.5618,171.4375 L248.2806,171.4375 L247.5306,174.5 L245.0931,174.5 L248.4368,162.1094 Z " fill="#000000"/><text fill="#000000" font-family="sans-serif" font-size="14" font-style="italic" lengthAdjust="spacing" textLength="65.3938" x="270.3118" y="174.432">Enviament</text><line style="stroke:#181818;stroke-width:0.5;" x1="190.5" x2="383.0174" y1="185" y2="185"/><polygon fill="transparent" points="200.5,195.034,204.5,199.034,200.5,203.034,196.5,199.034" style="stroke:#B38D22;stroke-width:1;"/><text fill="#000000" font-family="sans-serif" font-size="14" lengthAdjust="spacing" textLength="168.5174" x="209.5" y="203.9659">List&lt;Producte&gt; productes</text><line style="stroke:#181818;stroke-width:0.5;" x1="190.5" x2="383.0174" y1="212.0679" y2="212.0679"/><ellipse cx="200.5" cy="227.1019" fill="#84BE84" rx="3" ry="3" style="stroke:#038048;stroke-width:1;"/><text fill="#000000" font-family="sans-serif" font-size="14" lengthAdjust="spacing" textLength="72.9257" x="209.5" y="231.0339">processar()</text><ellipse cx="200.5" cy="246.1698" fill="#84BE84" rx="3" ry="3" style="stroke:#038048;stroke-width:1;"/><text fill="#000000" font-family="sans-serif" font-size="14" lengthAdjust="spacing" textLength="141.5255" x="209.5" y="250.1018">calcularCost(): double</text></g><!--class EnviamentDomicili--><g id="elem_EnviamentDomicili"><rect codeLine="8" fill="#F1F1F1" height="86.1358" id="EnviamentDomicili" rx="2.5" ry="2.5" style="stroke:#181818;stroke-width:0.5;" width="167.5255" x="7" y="7"/><ellipse cx="27.7924" cy="23" fill="#ADD1B2" rx="11" ry="11" style="stroke:#181818;stroke-width:1;"/><path d="M30.7611,28.6406 Q30.183,28.9375 29.5424,29.0781 Q28.9018,29.2344 28.1986,29.2344 Q25.6986,29.2344 24.3705,27.5938 Q23.058,25.9375 23.058,22.8125 Q23.058,19.6875 24.3705,18.0313 Q25.6986,16.375 28.1986,16.375 Q28.9018,16.375 29.5424,16.5313 Q30.1986,16.6875 30.7611,16.9844 L30.7611,19.7031 Q30.1361,19.125 29.5424,18.8594 Q28.9486,18.5781 28.3236,18.5781 Q26.9799,18.5781 26.2924,19.6563 Q25.6049,20.7188 25.6049,22.8125 Q25.6049,24.9063 26.2924,25.9844 Q26.9799,27.0469 28.3236,27.0469 Q28.9486,27.0469 29.5424,26.7813 Q30.1361,26.5 30.7611,25.9219 L30.7611,28.6406 Z " fill="#000000"/><text fill="#000000" font-family="sans-serif" font-size="14" lengthAdjust="spacing" textLength="122.6535" x="43.0796" y="28.432">EnviamentDomicili</text><line style="stroke:#181818;stroke-width:0.5;" x1="8" x2="173.5255" y1="39" y2="39"/><line style="stroke:#181818;stroke-width:0.5;" x1="8" x2="173.5255" y1="47" y2="47"/><ellipse cx="18" cy="62.034" fill="#84BE84" rx="3" ry="3" style="stroke:#038048;stroke-width:1;"/><text fill="#000000" font-family="sans-serif" font-size="14" lengthAdjust="spacing" textLength="72.9257" x="27" y="65.9659">processar()</text><ellipse cx="18" cy="81.1019" fill="#84BE84" rx="3" ry="3" style="stroke:#038048;stroke-width:1;"/><text fill="#000000" font-family="sans-serif" font-size="14" lengthAdjust="spacing" textLength="141.5255" x="27" y="85.0339">calcularCost(): double</text></g><!--class RecollidaTenda--><g id="elem_RecollidaTenda"><rect codeLine="13" fill="#F1F1F1" height="86.1358" id="RecollidaTenda" rx="2.5" ry="2.5" style="stroke:#181818;stroke-width:0.5;" width="167.5255" x="210" y="7"/><ellipse cx="241.0361" cy="23" fill="#ADD1B2" rx="11" ry="11" style="stroke:#181818;stroke-width:1;"/><path d="M244.0049,28.6406 Q243.4268,28.9375 242.7861,29.0781 Q242.1455,29.2344 241.4424,29.2344 Q238.9424,29.2344 237.6143,27.5938 Q236.3018,25.9375 236.3018,22.8125 Q236.3018,19.6875 237.6143,18.0313 Q238.9424,16.375 241.4424,16.375 Q242.1455,16.375 242.7861,16.5313 Q243.4424,16.6875 244.0049,16.9844 L244.0049,19.7031 Q243.3799,19.125 242.7861,18.8594 Q242.1924,18.5781 241.5674,18.5781 Q240.2236,18.5781 239.5361,19.6563 Q238.8486,20.7188 238.8486,22.8125 Q238.8486,24.9063 239.5361,25.9844 Q240.2236,27.0469 241.5674,27.0469 Q242.1924,27.0469 242.7861,26.7813 Q243.3799,26.5 244.0049,25.9219 L244.0049,28.6406 Z " fill="#000000"/><text fill="#000000" font-family="sans-serif" font-size="14" lengthAdjust="spacing" textLength="99.8896" x="258.5997" y="28.432">RecollidaTenda</text><line style="stroke:#181818;stroke-width:0.5;" x1="211" x2="376.5255" y1="39" y2="39"/><line style="stroke:#181818;stroke-width:0.5;" x1="211" x2="376.5255" y1="47" y2="47"/><ellipse cx="221" cy="62.034" fill="#84BE84" rx="3" ry="3" style="stroke:#038048;stroke-width:1;"/><text fill="#000000" font-family="sans-serif" font-size="14" lengthAdjust="spacing" textLength="72.9257" x="230" y="65.9659">processar()</text><ellipse cx="221" cy="81.1019" fill="#84BE84" rx="3" ry="3" style="stroke:#038048;stroke-width:1;"/><text fill="#000000" font-family="sans-serif" font-size="14" lengthAdjust="spacing" textLength="141.5255" x="230" y="85.0339">calcularCost(): double</text></g><!--class EnviamentFactory--><g id="elem_EnviamentFactory"><rect codeLine="18" fill="#F1F1F1" height="67.0679" id="EnviamentFactory" rx="2.5" ry="2.5" style="stroke:#181818;stroke-width:0.5;" width="222.4052" x="420" y="16.5"/><ellipse cx="471.4498" cy="32.5" fill="#A9DCDF" rx="11" ry="11" style="stroke:#181818;stroke-width:1;"/><path d="M471.5592,27.8438 L470.4029,32.9219 L472.7311,32.9219 L471.5592,27.8438 Z M470.0748,25.6094 L473.0592,25.6094 L476.4186,38 L473.9654,38 L473.1998,34.9375 L469.9186,34.9375 L469.1686,38 L466.7311,38 L470.0748,25.6094 Z " fill="#000000"/><text fill="#000000" font-family="sans-serif" font-size="14" font-style="italic" lengthAdjust="spacing" textLength="111.0056" x="491.9498" y="37.932">EnviamentFactory</text><line style="stroke:#181818;stroke-width:0.5;" x1="421" x2="641.4052" y1="48.5" y2="48.5"/><line style="stroke:#181818;stroke-width:0.5;" x1="421" x2="641.4052" y1="56.5" y2="56.5"/><ellipse cx="431" cy="71.534" fill="#84BE84" rx="3" ry="3" style="stroke:#038048;stroke-width:1;"/><text fill="#000000" font-family="sans-serif" font-size="14" lengthAdjust="spacing" textLength="196.4052" x="440" y="75.4659">createEnviament(): Enviament</text></g><!--class EnviamentDomiciliFactory--><g id="elem_EnviamentDomiciliFactory"><rect codeLine="22" fill="#F1F1F1" height="67.0679" id="EnviamentDomiciliFactory" rx="2.5" ry="2.5" style="stroke:#181818;stroke-width:0.5;" width="222.4052" x="420" y="172"/><ellipse cx="443.7596" cy="188" fill="#ADD1B2" rx="11" ry="11" style="stroke:#181818;stroke-width:1;"/><path d="M446.7284,193.6406 Q446.1503,193.9375 445.5096,194.0781 Q444.869,194.2344 444.1659,194.2344 Q441.6659,194.2344 440.3378,192.5938 Q439.0253,190.9375 439.0253,187.8125 Q439.0253,184.6875 440.3378,183.0313 Q441.6659,181.375 444.1659,181.375 Q444.869,181.375 445.5096,181.5313 Q446.1659,181.6875 446.7284,181.9844 L446.7284,184.7031 Q446.1034,184.125 445.5096,183.8594 Q444.9159,183.5781 444.2909,183.5781 Q442.9471,183.5781 442.2596,184.6563 Q441.5721,185.7188 441.5721,187.8125 Q441.5721,189.9063 442.2596,190.9844 Q442.9471,192.0469 444.2909,192.0469 Q444.9159,192.0469 445.5096,191.7813 Q446.1034,191.5 446.7284,190.9219 L446.7284,193.6406 Z " fill="#000000"/><text fill="#000000" font-family="sans-serif" font-size="14" lengthAdjust="spacing" textLength="170.9393" x="459.7062" y="193.432">EnviamentDomiciliFactory</text><line style="stroke:#181818;stroke-width:0.5;" x1="421" x2="641.4052" y1="204" y2="204"/><line style="stroke:#181818;stroke-width:0.5;" x1="421" x2="641.4052" y1="212" y2="212"/><ellipse cx="431" cy="227.034" fill="#84BE84" rx="3" ry="3" style="stroke:#038048;stroke-width:1;"/><text fill="#000000" font-family="sans-serif" font-size="14" lengthAdjust="spacing" textLength="196.4052" x="440" y="230.9659">createEnviament(): Enviament</text></g><!--class RecollidaFactory--><g id="elem_RecollidaFactory"><rect codeLine="26" fill="#F1F1F1" height="67.0679" id="RecollidaFactory" rx="2.5" ry="2.5" style="stroke:#181818;stroke-width:0.5;" width="222.4052" x="677" y="172"/><ellipse cx="730.2628" cy="188" fill="#ADD1B2" rx="11" ry="11" style="stroke:#181818;stroke-width:1;"/><path d="M733.2316,193.6406 Q732.6534,193.9375 732.0128,194.0781 Q731.3722,194.2344 730.6691,194.2344 Q728.1691,194.2344 726.8409,192.5938 Q725.5284,190.9375 725.5284,187.8125 Q725.5284,184.6875 726.8409,183.0313 Q728.1691,181.375 730.6691,181.375 Q731.3722,181.375 732.0128,181.5313 Q732.6691,181.6875 733.2316,181.9844 L733.2316,184.7031 Q732.6066,184.125 732.0128,183.8594 Q731.4191,183.5781 730.7941,183.5781 Q729.4503,183.5781 728.7628,184.6563 Q728.0753,185.7188 728.0753,187.8125 Q728.0753,189.9063 728.7628,190.9844 Q729.4503,192.0469 730.7941,192.0469 Q731.4191,192.0469 732.0128,191.7813 Q732.6066,191.5 733.2316,190.9219 L733.2316,193.6406 Z " fill="#000000"/><text fill="#000000" font-family="sans-serif" font-size="14" lengthAdjust="spacing" textLength="107.3796" x="750.7628" y="193.432">RecollidaFactory</text><line style="stroke:#181818;stroke-width:0.5;" x1="678" x2="898.4052" y1="204" y2="204"/><line style="stroke:#181818;stroke-width:0.5;" x1="678" x2="898.4052" y1="212" y2="212"/><ellipse cx="688" cy="227.034" fill="#84BE84" rx="3" ry="3" style="stroke:#038048;stroke-width:1;"/><text fill="#000000" font-family="sans-serif" font-size="14" lengthAdjust="spacing" textLength="196.4052" x="697" y="230.9659">createEnviament(): Enviament</text></g><!--link EnviamentFactory to Enviament--><g id="link_EnviamentFactory_Enviament"><path codeLine="30" d="M479.25,83.55 C447.22,103.71 410.4584,126.8347 373.9984,149.7747 " fill="transparent" id="EnviamentFactory-to-Enviament" style="stroke:#181818;stroke-width:1;stroke-dasharray:7.0,7.0;"/><polygon fill="#181818" points="368.92,152.97,378.6678,151.5627,373.152,150.3073,374.4075,144.7915,368.92,152.97" style="stroke:#181818;stroke-width:1;"/></g><!--reverse link EnviamentFactory to EnviamentDomiciliFactory--><g id="link_EnviamentFactory_EnviamentDomiciliFactory"><path codeLine="31" d="M531,101.55 C531,127.6 531,145.96 531,171.99 " fill="transparent" id="EnviamentFactory-backto-EnviamentDomiciliFactory" style="stroke:#181818;stroke-width:1;"/><polygon fill="transparent" points="531,83.55,525,101.55,537,101.55,531,83.55" style="stroke:#181818;stroke-width:1;"/></g><!--reverse link EnviamentFactory to RecollidaFactory--><g id="link_EnviamentFactory_RecollidaFactory"><path codeLine="32" d="M600.9539,92.7791 C644.5739,118.8291 689.98,145.96 733.58,171.99 " fill="transparent" id="EnviamentFactory-backto-RecollidaFactory" style="stroke:#181818;stroke-width:1;"/><polygon fill="transparent" points="585.5,83.55,597.8775,97.9304,604.0303,87.6278,585.5,83.55" style="stroke:#181818;stroke-width:1;"/></g><!--link EnviamentDomicili to Enviament--><g id="link_EnviamentDomicili_Enviament"><path codeLine="33" d="M144.82,93.15 C168.39,111.61 182.0959,122.3552 206.9059,141.7752 " fill="transparent" id="EnviamentDomicili-to-Enviament" style="stroke:#181818;stroke-width:1;"/><polygon fill="transparent" points="221.08,152.87,210.6041,137.0505,203.2076,146.4999,221.08,152.87" style="stroke:#181818;stroke-width:1;"/></g><!--link RecollidaTenda to Enviament--><g id="link_RecollidaTenda_Enviament"><path codeLine="34" d="M292.07,93.35 C291.23,111.81 291.0461,115.6285 290.1661,135.0185 " fill="transparent" id="RecollidaTenda-to-Enviament" style="stroke:#181818;stroke-width:1;"/><polygon fill="transparent" points="289.35,153,296.1599,135.2905,284.1722,134.7465,289.35,153" style="stroke:#181818;stroke-width:1;"/></g><!--SRC=[dL7D2eCm3BxtAGgxA4CVO8YN_Pns66Cl4DCS2fqTJHsCwRjFXnIfE9Wz9VdIx_kIGCNU0Ng91fZbiNvgk5FjvLl8_ctaMRClBiwg1ZsLyZ56_8MtGux432v9nmg2mSQ0srlsIRgJoZQL8T494KaSx5sZDdgKMiDr9RJ6Q0KtgXMi8eA51PpwcdMlm8cEm5E01vAG_1Xk7KsOwz_lC_jvNauwPd3HPjcYwONss9oONpJBsgbiTAO85Tq7]--></g></svg>