<svg xmlns="http://www.w3.org/2000/svg" xmlns:xlink="http://www.w3.org/1999/xlink" contentStyleType="text/css" data-diagram-type="CLASS" height="246px" preserveAspectRatio="none" style="width:425px;height:246px;background:#FFFFFF;" version="1.1" viewBox="0 0 425 246" width="425px" zoomAndPan="magnify"><defs/><g><!--class Client--><g id="elem_Client"><rect codeLine="2" fill="#F1F1F1" height="48" id="Client" rx="2.5" ry="2.5" style="stroke:#181818;stroke-width:0.5;" width="69.6738" x="63" y="7"/><ellipse cx="78" cy="23" fill="#ADD1B2" rx="11" ry="11" style="stroke:#181818;stroke-width:1;"/><path d="M80.9688,28.6406 Q80.3906,28.9375 79.75,29.0781 Q79.1094,29.2344 78.4063,29.2344 Q75.9063,29.2344 74.5781,27.5938 Q73.2656,25.9375 73.2656,22.8125 Q73.2656,19.6875 74.5781,18.0313 Q75.9063,16.375 78.4063,16.375 Q79.1094,16.375 79.75,16.5313 Q80.4063,16.6875 80.9688,16.9844 L80.9688,19.7031 Q80.3438,19.125 79.75,18.8594 Q79.1563,18.5781 78.5313,18.5781 Q77.1875,18.5781 76.5,19.6563 Q75.8125,20.7188 75.8125,22.8125 Q75.8125,24.9063 76.5,25.9844 Q77.1875,27.0469 78.5313,27.0469 Q79.1563,27.0469 79.75,26.7813 Q80.3438,26.5 80.9688,25.9219 L80.9688,28.6406 Z " fill="#000000"/><text fill="#000000" font-family="sans-serif" font-size="14" lengthAdjust="spacing" textLength="37.6738" x="92" y="28.432">Client</text><line style="stroke:#181818;stroke-width:0.5;" x1="64" x2="131.6738" y1="39" y2="39"/><line style="stroke:#181818;stroke-width:0.5;" x1="64" x2="131.6738" y1="47" y2="47"/></g><!--class Singleton--><g id="elem_Singleton"><rect codeLine="4" fill="#F1F1F1" height="105.2038" id="Singleton" rx="2.5" ry="2.5" style="stroke:#181818;stroke-width:0.5;" width="181.8754" x="7" y="134"/><ellipse cx="62.5658" cy="150" fill="#ADD1B2" rx="11" ry="11" style="stroke:#181818;stroke-width:1;"/><path d="M65.5346,155.6406 Q64.9564,155.9375 64.3158,156.0781 Q63.6752,156.2344 62.9721,156.2344 Q60.4721,156.2344 59.1439,154.5938 Q57.8314,152.9375 57.8314,149.8125 Q57.8314,146.6875 59.1439,145.0313 Q60.4721,143.375 62.9721,143.375 Q63.6752,143.375 64.3158,143.5313 Q64.9721,143.6875 65.5346,143.9844 L65.5346,146.7031 Q64.9096,146.125 64.3158,145.8594 Q63.7221,145.5781 63.0971,145.5781 Q61.7533,145.5781 61.0658,146.6563 Q60.3783,147.7188 60.3783,149.8125 Q60.3783,151.9063 61.0658,152.9844 Q61.7533,154.0469 63.0971,154.0469 Q63.7221,154.0469 64.3158,153.7813 Q64.9096,153.5 65.5346,152.9219 L65.5346,155.6406 Z " fill="#000000"/><text fill="#000000" font-family="sans-serif" font-size="14" lengthAdjust="spacing" textLength="62.2438" x="83.0658" y="155.432">Singleton</text><line style="stroke:#181818;stroke-width:0.5;" x1="8" x2="187.8754" y1="166" y2="166"/><rect fill="transparent" height="6" style="stroke:#C82930;stroke-width:1;" width="6" x="15" y="178.034"/><text fill="#000000" font-family="sans-serif" font-size="14" lengthAdjust="spacing" textLength="124.7815" x="27" y="184.9659">instance: Singleton</text><line style="stroke:#181818;stroke-width:0.5;" x1="8" x2="187.8754" y1="193.0679" y2="193.0679"/><rect fill="#F24D5C" height="6" style="stroke:#C82930;stroke-width:1;" width="6" x="15" y="205.1019"/><text fill="#000000" font-family="sans-serif" font-size="14" lengthAdjust="spacing" textLength="70.6437" x="27" y="212.0339">Singleton()</text><ellipse cx="18" cy="227.1698" fill="#84BE84" rx="3" ry="3" style="stroke:#038048;stroke-width:1;"/><text fill="#000000" font-family="sans-serif" font-size="14" lengthAdjust="spacing" textLength="155.8754" x="27" y="231.1018">getInstance(): Singleton</text></g><path d="M224,141 L224,177.412 L182.8754,225.6698 L224,185.412 L224,221.8241 A0,0 0 0 0 224,221.8241 L418.4852,221.8241 A0,0 0 0 0 418.4852,221.8241 L418.4852,151 L408.4852,141 L224,141 A0,0 0 0 0 224,141 " fill="#FEFFDD" style="stroke:#181818;stroke-width:0.5;"/><path d="M408.4852,141 L408.4852,151 L418.4852,151 L408.4852,141 " fill="#FEFFDD" style="stroke:#181818;stroke-width:0.5;"/><text fill="#000000" font-family="sans-serif" font-size="13" lengthAdjust="spacing" textLength="119.5611" x="230" y="159.897">if (instance == null){</text><text fill="#000000" font-family="sans-serif" font-size="13" lengthAdjust="spacing" textLength="159.9652" x="243.52" y="177.603">instance = new Singleton()</text><text fill="#000000" font-family="sans-serif" font-size="13" lengthAdjust="spacing" textLength="4.94" x="230" y="195.309">}</text><text fill="#000000" font-family="sans-serif" font-size="13" lengthAdjust="spacing" textLength="93.4181" x="230" y="213.0151">return instance</text><!--link Client to Singleton--><g id="link_Client_Singleton"><path codeLine="10" d="M98,55.31 C98,76.11 98,101.31 98,127.95 " fill="transparent" id="Client-to-Singleton" style="stroke:#181818;stroke-width:1;"/><polygon fill="#181818" points="98,133.95,102,124.95,98,128.95,94,124.95,98,133.95" style="stroke:#181818;stroke-width:1;"/><text fill="#000000" font-family="sans-serif" font-size="13" lengthAdjust="spacing" textLength="80.0801" x="99" y="99.897">getInstance()</text></g><!--SRC=[LOwn3eCm34HtVyMDH5L-08akdJht2n0rQQJ8ICIe0-BV2sb8KmyUxjtfRWXzZBW5pw9ODw8X2GylBh1EWfMmduMNgBqCt5OCcHMbCJWleGiSwpqd6rDbQQ_AhTPUVthx5o2IIHcpTo_5D5QssfUg_8Zct8YkWomXcE_uX0k2yBjUd2nR-ZFhCaln4iiJnm3w0000]--></g></svg>