<?xml version="1.0" encoding="UTF-8" standalone="no"?>
<!-- Created with Inkscape (http://www.inkscape.org/) -->

<svg
   width="61.14769mm"
   height="44.308437mm"
   viewBox="0 0 61.147691 44.308437"
   version="1.1"
   id="svg1"
   xmlns="http://www.w3.org/2000/svg"
   xmlns:svg="http://www.w3.org/2000/svg">
  <defs
     id="defs1">
    <linearGradient
       id="paint0_linear_5756_22924"
       x1="375.202"
       x2="25.718"
       y1="289.30099"
       y2="313.81201"
       gradientUnits="userSpaceOnUse">
      <stop
         stop-color="#FFC444"
         id="stop60" />
      <stop
         offset=".996"
         stop-color="#F36F56"
         id="stop61" />
    </linearGradient>
    <mask
       id="mask0_5756_22924"
       width="193"
       height="113"
       x="186"
       y="237"
       maskUnits="userSpaceOnUse">
      <path
         fill="#ffffff"
         d="m 202.95,281.89 c -5.261,12.566 -11.115,25.144 -16.481,37.775 5.471,5.525 12.024,11.893 19.54,5.788 10.442,-8.491 31.208,2.624 39.607,9.507 10.403,8.517 34.598,24.827 42.205,6.579 6.329,-15.189 4.219,-27.056 23.931,-23.14 19.724,3.916 33.859,-1.819 38.394,-19.658 4.773,-18.776 32.989,-25.5 27.504,-44.829 -9.559,-33.661 -59.055,-9.731 -75.589,12.46 -16.534,22.19 -24.089,7.818 -41.097,0.369 -23.219,-10.179 -22.164,20.252 -35.956,22.625 -10.811,1.846 -13.989,-2.914 -22.058,-7.476 z"
         id="path3" />
    </mask>
    <mask
       id="mask1_5756_22924"
       width="148"
       height="195"
       x="218"
       y="160"
       maskUnits="userSpaceOnUse">
      <path
         fill="#ffffff"
         d="m 244.633,354.512 a 672.524,672.524 0 0 1 -26.278,-14.068 c -0.198,0.092 3.52,-21.149 16.679,-28.546 25.869,-14.187 19.25,-36.904 19.25,-49.047 -0.686,-17.365 8.583,-35.086 24.366,-25.896 15.518,8.557 29.415,-24.642 35.335,-51.803 1.833,-13.581 19.053,-25.025 32.251,-24.537 13.58,0.184 23.126,12.301 18.366,39.001 -4.179,31.353 -31.617,41.914 -44.512,54.018 -12.684,11.867 1.608,29.693 -17.351,37.63 -16.152,7.278 -34.439,10.284 -33.556,26.515 1.107,16.099 -4.166,27.214 -24.55,36.733 z"
         id="path6" />
    </mask>
    <linearGradient
       id="paint1_linear_5756_22924"
       x1="344.89499"
       x2="242.133"
       y1="164.744"
       y2="350.40799"
       gradientUnits="userSpaceOnUse">
      <stop
         stop-color="#AA80F9"
         id="stop62" />
      <stop
         offset=".996"
         stop-color="#6165D7"
         id="stop63" />
    </linearGradient>
    <mask
       id="mask2_5756_22924"
       width="148"
       height="195"
       x="218"
       y="160"
       maskUnits="userSpaceOnUse">
      <path
         fill="#ffffff"
         d="m 244.633,354.512 a 672.524,672.524 0 0 1 -26.278,-14.068 c -0.198,0.092 3.52,-21.149 16.679,-28.546 25.869,-14.187 19.25,-36.904 19.25,-49.047 -0.686,-17.365 8.583,-35.086 24.366,-25.896 15.518,8.557 29.415,-24.642 35.335,-51.803 1.833,-13.581 19.053,-25.025 32.251,-24.537 13.58,0.184 23.126,12.301 18.366,39.001 -4.179,31.353 -31.617,41.914 -44.512,54.018 -12.684,11.867 1.608,29.693 -17.351,37.63 -16.152,7.278 -34.439,10.284 -33.556,26.515 1.107,16.099 -4.166,27.214 -24.55,36.733 z"
         id="path8" />
    </mask>
    <linearGradient
       id="paint2_linear_5756_22924"
       x1="160.64"
       x2="134.58"
       y1="353.74399"
       y2="364.689"
       gradientUnits="userSpaceOnUse">
      <stop
         stop-color="#40447E"
         id="stop64" />
      <stop
         offset=".996"
         stop-color="#3C3B6B"
         id="stop65" />
    </linearGradient>
    <linearGradient
       id="paint3_linear_5756_22924"
       x1="125.843"
       x2="97.560997"
       y1="238.88699"
       y2="250.76601"
       gradientUnits="userSpaceOnUse">
      <stop
         stop-color="#40447E"
         id="stop66" />
      <stop
         offset=".996"
         stop-color="#3C3B6B"
         id="stop67" />
    </linearGradient>
    <linearGradient
       id="paint4_linear_5756_22924"
       x1="3.941"
       x2="266.04001"
       y1="245.317"
       y2="245.317"
       gradientUnits="userSpaceOnUse">
      <stop
         stop-color="#40447E"
         id="stop68" />
      <stop
         offset=".996"
         stop-color="#3C3B6B"
         id="stop69" />
    </linearGradient>
    <linearGradient
       id="paint5_linear_5756_22924"
       x1="169.51601"
       x2="-31.357"
       y1="181.78999"
       y2="510.17499"
       gradientUnits="userSpaceOnUse">
      <stop
         stop-color="#E644FF"
         id="stop70" />
      <stop
         offset=".996"
         stop-color="#8C56F3"
         id="stop71" />
    </linearGradient>
    <linearGradient
       id="paint6_linear_5756_22924"
       x1="3.941"
       x2="374.918"
       y1="342.23999"
       y2="342.23999"
       gradientUnits="userSpaceOnUse">
      <stop
         stop-color="#40447E"
         id="stop72" />
      <stop
         offset=".996"
         stop-color="#3C3B6B"
         id="stop73" />
    </linearGradient>
    <linearGradient
       id="paint7_linear_5756_22924"
       x1="40.323002"
       x2="312.13501"
       y1="339.20099"
       y2="339.20099"
       gradientUnits="userSpaceOnUse">
      <stop
         stop-color="#40447E"
         id="stop74" />
      <stop
         offset=".996"
         stop-color="#3C3B6B"
         id="stop75" />
    </linearGradient>
    <linearGradient
       id="paint8_linear_5756_22924"
       x1="205.95"
       x2="140.55099"
       y1="138.23199"
       y2="275.82999"
       gradientUnits="userSpaceOnUse">
      <stop
         stop-color="#F685FF"
         id="stop76" />
      <stop
         offset="1"
         stop-color="#986FFB"
         id="stop77" />
    </linearGradient>
    <linearGradient
       id="paint9_linear_5756_22924"
       x1="518.83698"
       x2="321.06699"
       y1="229.082"
       y2="111.792"
       gradientUnits="userSpaceOnUse">
      <stop
         stop-color="#E46DFF"
         id="stop78" />
      <stop
         offset=".996"
         stop-color="#A07CF6"
         id="stop79" />
    </linearGradient>
    <linearGradient
       id="paint10_linear_5756_22924"
       x1="520.453"
       x2="322.68399"
       y1="226.35201"
       y2="109.062"
       gradientUnits="userSpaceOnUse">
      <stop
         stop-color="#E46DFF"
         id="stop80" />
      <stop
         offset=".996"
         stop-color="#A07CF6"
         id="stop81" />
    </linearGradient>
    <linearGradient
       id="paint11_linear_5756_22924"
       x1="336.85699"
       x2="128.82201"
       y1="6.5240002"
       y2="375.82599"
       gradientUnits="userSpaceOnUse">
      <stop
         stop-color="#E46DFF"
         id="stop82" />
      <stop
         offset=".996"
         stop-color="#A07CF6"
         id="stop83" />
    </linearGradient>
    <mask
       id="mask3_5756_22924"
       width="185"
       height="112"
       x="198"
       y="29"
       maskUnits="userSpaceOnUse">
      <path
         fill="#ffffff"
         d="m 341.983,107.613 7.7,-29.614 -20.648,-13.54 c -7.95,-20.7 -28.031,-35.428 -51.54,-35.428 -30.483,0 -55.192,24.708 -55.192,55.192 a 55.024,55.024 0 0 0 4.364,21.544 l -27.991,-2.176 11.813,19.395 15.691,10.43 30.153,-5.076 c 6.791,5.326 11.142,9.242 21.162,11.075 17.431,3.191 32.686,-2.927 43.365,-14.134 l 9.507,2.874 h 51.131 l 0.778,-20.516 h -40.293 z"
         id="path25" />
    </mask>
    <linearGradient
       id="paint12_linear_5756_22924"
       x1="363.58401"
       x2="378.16101"
       y1="114.038"
       y2="131.565"
       gradientUnits="userSpaceOnUse">
      <stop
         stop-color="#FFC444"
         id="stop84" />
      <stop
         offset=".996"
         stop-color="#F36F56"
         id="stop85" />
    </linearGradient>
    <linearGradient
       id="paint13_linear_5756_22924"
       x1="251.783"
       x2="312.689"
       y1="215.756"
       y2="212.60899"
       gradientUnits="userSpaceOnUse">
      <stop
         stop-color="#444B8C"
         id="stop86" />
      <stop
         offset=".996"
         stop-color="#26264F"
         id="stop87" />
    </linearGradient>
    <linearGradient
       id="paint14_linear_5756_22924"
       x1="249.22"
       x2="307.98801"
       y1="210.88901"
       y2="214.95399"
       gradientUnits="userSpaceOnUse">
      <stop
         stop-color="#444B8C"
         id="stop88" />
      <stop
         offset=".996"
         stop-color="#26264F"
         id="stop89" />
    </linearGradient>
    <linearGradient
       id="paint15_linear_5756_22924"
       x1="405.23999"
       x2="244.586"
       y1="140.933"
       y2="36.93"
       gradientUnits="userSpaceOnUse">
      <stop
         stop-color="#311944"
         id="stop90" />
      <stop
         offset="1"
         stop-color="#6B3976"
         id="stop91" />
    </linearGradient>
    <linearGradient
       id="paint16_linear_5756_22924"
       x1="206.45399"
       x2="260.74301"
       y1="78.532997"
       y2="110.192"
       gradientUnits="userSpaceOnUse">
      <stop
         stop-color="#AA80F9"
         id="stop92" />
      <stop
         offset=".996"
         stop-color="#6165D7"
         id="stop93" />
    </linearGradient>
    <linearGradient
       id="paint17_linear_5756_22924"
       x1="405.09399"
       x2="244.44"
       y1="141.16299"
       y2="37.16"
       gradientUnits="userSpaceOnUse">
      <stop
         stop-color="#311944"
         id="stop94" />
      <stop
         offset="1"
         stop-color="#6B3976"
         id="stop95" />
    </linearGradient>
    <linearGradient
       id="paint18_linear_5756_22924"
       x1="258.23901"
       x2="364.272"
       y1="108.865"
       y2="204.799"
       gradientUnits="userSpaceOnUse">
      <stop
         stop-color="#AA80F9"
         id="stop96" />
      <stop
         offset=".996"
         stop-color="#6165D7"
         id="stop97" />
    </linearGradient>
    <linearGradient
       id="paint19_linear_5756_22924"
       x1="279.64401"
       x2="273.60599"
       y1="93.285004"
       y2="44.974998"
       gradientUnits="userSpaceOnUse">
      <stop
         stop-color="#FFC444"
         id="stop98" />
      <stop
         offset=".996"
         stop-color="#F36F56"
         id="stop99" />
    </linearGradient>
    <linearGradient
       id="paint20_linear_5756_22924"
       x1="279.21799"
       x2="280.71399"
       y1="86.513"
       y2="46.668999"
       gradientUnits="userSpaceOnUse">
      <stop
         stop-color="#FFC444"
         id="stop100" />
      <stop
         offset=".996"
         stop-color="#F36F56"
         id="stop101" />
    </linearGradient>
    <linearGradient
       id="paint21_linear_5756_22924"
       x1="272.42599"
       x2="272.793"
       y1="51.666"
       y2="93.061996"
       gradientUnits="userSpaceOnUse">
      <stop
         stop-color="#FFC444"
         id="stop102" />
      <stop
         offset=".996"
         stop-color="#F36F56"
         id="stop103" />
    </linearGradient>
    <linearGradient
       id="paint22_linear_5756_22924"
       x1="408.005"
       x2="247.351"
       y1="136.666"
       y2="32.661999"
       gradientUnits="userSpaceOnUse">
      <stop
         stop-color="#311944"
         id="stop104" />
      <stop
         offset="1"
         stop-color="#6B3976"
         id="stop105" />
    </linearGradient>
    <linearGradient
       id="paint23_linear_5756_22924"
       x1="288.681"
       x2="396.82599"
       y1="72.665001"
       y2="170.511"
       gradientUnits="userSpaceOnUse">
      <stop
         stop-color="#AA80F9"
         id="stop106" />
      <stop
         offset=".996"
         stop-color="#6165D7"
         id="stop107" />
    </linearGradient>
    <linearGradient
       id="paint24_linear_5756_22924"
       x1="209.867"
       x2="221.48199"
       y1="108.234"
       y2="118.742"
       gradientUnits="userSpaceOnUse">
      <stop
         stop-color="#FFC444"
         id="stop108" />
      <stop
         offset=".996"
         stop-color="#F36F56"
         id="stop109" />
    </linearGradient>
    <linearGradient
       id="paint25_linear_5756_22924"
       x1="257.517"
       x2="363.54999"
       y1="109.328"
       y2="205.263"
       gradientUnits="userSpaceOnUse">
      <stop
         stop-color="#E385FF"
         id="stop110" />
      <stop
         offset="1"
         stop-color="#836FFB"
         id="stop111" />
    </linearGradient>
    <linearGradient
       id="paint26_linear_5756_22924"
       x1="281.061"
       x2="25.007999"
       y1="393.69199"
       y2="236.70399"
       gradientUnits="userSpaceOnUse">
      <stop
         offset=".004"
         stop-color="#DC70D4"
         id="stop112" />
      <stop
         offset="1"
         stop-color="#7C4FF4"
         id="stop113" />
    </linearGradient>
    <linearGradient
       id="paint27_linear_5756_22924"
       x1="283.142"
       x2="27.089001"
       y1="390.293"
       y2="233.304"
       gradientUnits="userSpaceOnUse">
      <stop
         offset=".004"
         stop-color="#DC70D4"
         id="stop114" />
      <stop
         offset="1"
         stop-color="#7C4FF4"
         id="stop115" />
    </linearGradient>
    <linearGradient
       id="paint28_linear_5756_22924"
       x1="125.746"
       x2="-38.293999"
       y1="230.24001"
       y2="634.87201"
       gradientUnits="userSpaceOnUse">
      <stop
         offset=".004"
         stop-color="#DC70D4"
         id="stop116" />
      <stop
         offset="1"
         stop-color="#7C4FF4"
         id="stop117" />
    </linearGradient>
    <mask
       id="mask4_5756_22924"
       width="176"
       height="143"
       x="46"
       y="198"
       maskUnits="userSpaceOnUse">
      <path
         fill="#ffffff"
         d="M 221.9,283.329 V 253.65 l -62.668,23.772 c -2.255,-30.075 -12.011,-79.083 -41.783,-79.083 -31.261,0 -71.238,51.421 -71.238,83.632 0,32.197 25.341,58.304 56.59,58.304 17.325,0 32.83,-8.017 43.207,-20.661 l 9.559,1.015 z"
         id="path43" />
    </mask>
    <linearGradient
       id="paint29_linear_5756_22924"
       x1="209.13699"
       x2="183.83299"
       y1="268.255"
       y2="300.08899"
       gradientUnits="userSpaceOnUse">
      <stop
         stop-color="#FFC444"
         id="stop118" />
      <stop
         offset=".996"
         stop-color="#F36F56"
         id="stop119" />
    </linearGradient>
    <linearGradient
       id="paint30_linear_5756_22924"
       x1="92.813004"
       x2="74.780998"
       y1="318.76999"
       y2="246.645"
       gradientUnits="userSpaceOnUse">
      <stop
         stop-color="#FFF344"
         id="stop120" />
      <stop
         offset=".996"
         stop-color="#F39656"
         id="stop121" />
    </linearGradient>
    <linearGradient
       id="paint31_linear_5756_22924"
       x1="128.60001"
       x2="72.822998"
       y1="505.035"
       y2="279.83801"
       gradientUnits="userSpaceOnUse">
      <stop
         stop-color="#444B8C"
         id="stop122" />
      <stop
         offset=".996"
         stop-color="#26264F"
         id="stop123" />
    </linearGradient>
    <linearGradient
       id="paint32_linear_5756_22924"
       x1="53.306999"
       x2="173.034"
       y1="330.83301"
       y2="247.567"
       gradientUnits="userSpaceOnUse">
      <stop
         stop-color="#FFF344"
         id="stop124" />
      <stop
         offset=".996"
         stop-color="#F39656"
         id="stop125" />
    </linearGradient>
    <linearGradient
       id="paint33_linear_5756_22924"
       x1="127.01"
       x2="84.862"
       y1="217.689"
       y2="279.05499"
       gradientUnits="userSpaceOnUse">
      <stop
         stop-color="#FFC444"
         id="stop126" />
      <stop
         offset=".996"
         stop-color="#F36F56"
         id="stop127" />
    </linearGradient>
    <linearGradient
       id="paint34_linear_5756_22924"
       x1="124.951"
       x2="82.804001"
       y1="216.276"
       y2="277.64001"
       gradientUnits="userSpaceOnUse">
      <stop
         stop-color="#FFC444"
         id="stop128" />
      <stop
         offset=".996"
         stop-color="#F36F56"
         id="stop129" />
    </linearGradient>
    <linearGradient
       id="paint35_linear_5756_22924"
       x1="54.558998"
       x2="189.34599"
       y1="344.95599"
       y2="251.216"
       gradientUnits="userSpaceOnUse">
      <stop
         stop-color="#FFF344"
         id="stop130" />
      <stop
         offset=".996"
         stop-color="#F39656"
         id="stop131" />
    </linearGradient>
    <linearGradient
       id="paint36_linear_5756_22924"
       x1="163.377"
       x2="128.41701"
       y1="72.25"
       y2="130.284"
       gradientUnits="userSpaceOnUse">
      <stop
         stop-color="#FF44F5"
         id="stop132" />
      <stop
         offset=".996"
         stop-color="#A956F3"
         id="stop133" />
    </linearGradient>
    <linearGradient
       id="paint37_linear_5756_22924"
       x1="196.502"
       x2="238.47"
       y1="219.091"
       y2="219.091"
       gradientUnits="userSpaceOnUse">
      <stop
         offset=".004"
         stop-color="#E38DD3"
         id="stop134" />
      <stop
         offset="1"
         stop-color="#A571F6"
         id="stop135" />
    </linearGradient>
    <linearGradient
       id="paint38_linear_5756_22924"
       x1="189.474"
       x2="241.60899"
       y1="253.987"
       y2="358.608"
       gradientUnits="userSpaceOnUse">
      <stop
         stop-color="#16343D"
         id="stop136" />
      <stop
         offset="1"
         stop-color="#363D82"
         id="stop137" />
    </linearGradient>
    <linearGradient
       id="paint39_linear_5756_22924"
       x1="220.133"
       x2="270.771"
       y1="322.70499"
       y2="416.62399"
       gradientUnits="userSpaceOnUse">
      <stop
         stop-color="#DF7BFF"
         id="stop138" />
      <stop
         offset="1"
         stop-color="#7865FB"
         id="stop139" />
    </linearGradient>
    <linearGradient
       id="paint40_linear_5756_22924"
       x1="206.226"
       x2="255.42"
       y1="328.94699"
       y2="427.66699"
       gradientUnits="userSpaceOnUse">
      <stop
         stop-color="#DF7BFF"
         id="stop140" />
      <stop
         offset="1"
         stop-color="#7865FB"
         id="stop141" />
    </linearGradient>
    <linearGradient
       id="paint41_linear_5756_22924"
       x1="60.075001"
       x2="148.338"
       y1="233.25999"
       y2="51.884998"
       gradientUnits="userSpaceOnUse">
      <stop
         offset=".004"
         stop-color="#E38DDD"
         id="stop142" />
      <stop
         offset="1"
         stop-color="#9571F6"
         id="stop143" />
    </linearGradient>
  </defs>
  <g
     id="layer1"
     transform="translate(-138.10288,-163.24439)">
    <g
       id="g143"
       transform="matrix(0.25568064,0,0,0.25568064,22.746721,164.30466)">
      <path
         fill="#f4f7fa"
         d="M 124.507,24.996 C 90.964,9.544 36.774,14.528 10.668,54.07 -14.924,92.847 43.63,136.265 26.108,224.762 16.68,272.36 -0.552,288.92 9.969,318.23 c 10.852,30.233 43.036,51.171 71.95,58.501 59.636,15.124 85.61,-32.685 152.642,-16.138 23.061,5.696 30.919,14.055 55.14,14.121 5.801,0.013 51.012,0.185 74.639,-26.225 36.668,-40.965 -23.943,-95.221 -12.446,-220.939 1.925,-21.017 5.907,-44.526 -7.054,-69.05 -17.971,-33.977 -55.812,-45.554 -70.394,-50.34 -35.468,-11.642 -89.5,-13.303 -103.95,11.656 -4.668,8.069 -25.592,14.582 -45.989,5.181 z"
         id="path1"
         style="opacity:0.559872" />
      <path
         fill="url(#paint0_linear_5756_22924)"
         d="m 201.174,325.48 c -1.318,-1.476 -2.914,-5.854 -2.848,-7.159 0.383,-8.715 0.04,-25.091 6.461,-31.723 1.094,-1.134 7.383,2.347 9.071,1.886 4.549,1.239 6.039,1.951 10.944,1.015 14.463,-2.769 12.749,-32.818 36.139,-22.744 17.141,7.383 24.551,21.834 41.124,-0.369 16.574,-22.217 66.043,-46.121 75.602,-12.473 5.485,19.316 -22.73,26.053 -27.503,44.828 -4.536,17.84 -18.67,23.575 -38.395,19.659 -19.724,-3.916 -17.588,7.951 -23.944,23.14 -7.634,18.248 -31.749,1.911 -42.231,-6.58 -8.451,-6.843 -34.571,-18.551 -44.42,-9.48 z"
         id="path2"
         style="fill:url(#paint0_linear_5756_22924)" />
      <g
         fill="#fcfdfe"
         mask="url(#mask0_5756_22924)"
         opacity="0.7"
         id="g5">
        <path
           d="m 201.223,303.224 0.105,-0.408 c 62.787,16.481 128.54,-6.092 175.9,-60.348 l 0.317,0.277 c -22.441,25.724 -50.09,45.013 -79.967,55.812 -31.406,11.352 -64.725,12.961 -96.355,4.667 z"
           id="path4" />
        <path
           d="m 285.53,349.49 c -9.19,-15.189 -30.484,-33.701 -47.479,-41.256 l 0.171,-0.382 c 17.061,7.581 38.447,26.172 47.664,41.427 z m -71.954,-43.18 -0.014,-0.422 c 9.665,-0.238 18.842,-5.34 27.267,-15.189 6.184,-7.226 11.827,-16.772 16.784,-28.387 l 0.383,0.171 c -4.971,11.655 -10.641,21.241 -16.851,28.493 -8.491,9.941 -17.773,15.096 -27.569,15.334 z m 88.181,-9.454 -0.027,-0.422 c 18.196,-1.385 34.756,8.306 45.449,16.679 l -0.264,0.329 c -10.64,-8.319 -27.095,-17.958 -45.158,-16.586 z m 36.984,-19.422 -0.303,-0.303 c 14.49,-14.582 17.325,-35.968 17.72,-47.426 l 0.422,0.013 c -0.396,11.537 -3.257,33.042 -17.839,47.716 z"
           id="path5" />
      </g>
      <g
         mask="url(#mask1_5756_22924)"
         id="g7">
        <path
           fill="url(#paint1_linear_5756_22924)"
           d="m 244.633,354.512 a 672.524,672.524 0 0 1 -26.278,-14.068 c -0.198,0.092 3.52,-21.149 16.679,-28.546 25.869,-14.187 19.25,-36.904 19.25,-49.047 -0.633,-17.325 7.99,-32.976 23.746,-27.979 17.576,5.208 30.365,-22.507 35.968,-49.72 1.833,-13.581 19.053,-25.025 32.251,-24.537 13.58,0.184 23.126,12.301 18.366,39.001 -4.179,31.353 -31.617,41.914 -44.512,54.018 -12.684,11.867 1.609,29.693 -17.351,37.63 -16.152,7.278 -34.439,10.284 -33.556,26.515 1.094,16.099 -4.18,27.214 -24.563,36.733 z"
           id="path7"
           style="fill:url(#paint1_linear_5756_22924)" />
      </g>
      <g
         fill="#beb8f2"
         mask="url(#mask2_5756_22924)"
         opacity="0.7"
         id="g10">
        <path
           d="m 231.316,351.387 c 0.053,-0.184 23.193,-39.752 52.384,-76.037 4.364,-5.986 8.926,-11.985 13.33,-17.774 24.577,-32.263 47.795,-62.747 47.98,-105.215 h 0.593 c -0.197,42.666 -23.469,73.216 -48.111,105.571 -4.417,5.789 -8.979,11.775 -13.33,17.774 -29.363,36.482 -52.186,75.628 -52.305,75.879 z"
           id="path9" />
        <path
           d="m 319.614,227.594 -0.29,-0.514 c 14.227,-8.043 32.211,-20.226 41.876,-26.779 7.818,-5.3 7.845,-5.287 8.121,-5.142 l -0.131,0.264 0.052,0.29 c -0.369,0.119 -3.599,2.32 -7.7,5.089 -9.677,6.54 -27.675,18.736 -41.928,26.792 z m 8.281,-14.859 c 2.268,-13.858 -0.237,-24.313 -2.742,-30.655 -2.716,-6.896 -6.157,-10.812 -6.645,-11.076 l 0.105,-0.197 -0.092,-0.356 c 0.171,-0.053 0.316,0.052 0.527,0.237 3.007,2.703 13.409,17.786 9.428,42.152 z m -61.836,86.862 -0.54,-0.251 c 11.932,-25.236 2.281,-55.732 -2.413,-67.678 -0.251,-0.646 -0.33,-0.844 -0.356,-0.949 l 0.58,-0.119 -0.29,0.053 0.29,-0.066 c 0.013,0.066 0.158,0.435 0.33,0.857 3.388,8.61 5.775,17.272 7.08,25.737 2.518,16.257 0.936,30.523 -4.681,42.416 z m 8.503,-11.497 -0.382,-0.449 c 17.153,-14.266 41.044,-7.713 41.414,-7.541 l 0.118,0.329 -0.29,0.211 v -0.29 l -0.105,0.264 c -0.225,-0.079 -23.773,-6.645 -40.755,7.476 z m -39.355,56.853 c 1.978,-5.274 3.112,-15.004 -2.729,-31.459 -0.33,-0.936 -0.33,-0.936 -0.264,-1.068 l 0.528,0.263 -0.264,-0.131 0.29,-0.027 c 0.013,0.066 0.132,0.396 0.264,0.778 5.906,16.626 4.733,26.502 2.716,31.868 z m 6.273,-9.058 -0.488,-0.33 c 5.947,-8.596 21.544,-11.102 30.325,-11.84 0.277,-0.026 0.462,-0.039 0.528,-0.053 l 0.092,0.58 c -0.066,0.014 -0.264,0.027 -0.567,0.053 -8.675,0.725 -24.089,3.204 -29.89,11.59 z"
           id="path10" />
      </g>
      <path
         fill="url(#paint2_linear_5756_22924)"
         d="M 374.912,339.483 3.942,336.252 v 9.56 c 0,2.597 1.621,4.799 3.81,5.194 l 104.899,18.828 c 1.239,0.225 2.505,0.277 3.758,0.172 l 254.469,-21.465 c 2.268,-0.198 4.034,-2.4 4.034,-5.076 z"
         id="path11"
         style="fill:url(#paint2_linear_5756_22924)" />
      <path
         fill="url(#paint3_linear_5756_22924)"
         d="M 255.497,323.99 8.03,341.473 C 3.6,341.79 0,338.467 0,334.05 V 157.135 c 0,-4.417 3.6,-7.99 8.03,-7.99 h 247.467 c 3.653,0 6.593,3.23 6.593,7.225 v 159.92 c 0,3.995 -2.94,7.437 -6.593,7.7 z"
         id="path12"
         style="fill:url(#paint3_linear_5756_22924)" />
      <path
         fill="url(#paint4_linear_5756_22924)"
         d="M 259.439,323.99 11.971,341.473 c -4.43,0.317 -8.03,-3.006 -8.03,-7.423 V 157.135 c 0,-4.417 3.6,-7.99 8.03,-7.99 h 247.468 c 3.652,0 6.592,3.23 6.592,7.225 v 159.92 c 0.013,3.995 -2.94,7.437 -6.592,7.7 z"
         id="path13"
         style="fill:url(#paint4_linear_5756_22924)" />
      <path
         fill="url(#paint5_linear_5756_22924)"
         d="M 251.727,312.717 21.241,327.906 c -3.6,0.237 -6.526,-2.492 -6.526,-6.091 V 166.918 c 0,-3.599 2.927,-6.539 6.526,-6.553 l 230.499,-0.949 c 3.006,-0.013 5.445,2.637 5.445,5.92 v 141.079 c -0.013,3.27 -2.439,6.104 -5.458,6.302 z"
         id="path14"
         style="fill:url(#paint5_linear_5756_22924)" />
      <path
         fill="#ffffff"
         d="m 144.442,153.984 c 0,1.648 -1.279,2.979 -2.848,2.979 -1.569,0 -2.848,-1.331 -2.848,-2.979 0,-1.648 1.279,-2.98 2.848,-2.98 1.582,0 2.848,1.332 2.848,2.98 z"
         id="path15" />
      <path
         fill="#ffffff"
         d="m 199.817,275.47 c -19.079,-10.271 -34.083,2.743 -48.56,-10.086 -8.782,-7.779 -4.47,-13.581 -15.269,-25.21 C 124.03,227.293 116.237,231.63 104.213,220.041 89.01,205.392 96.618,193.987 83.526,183.466 67.638,170.703 50.511,182.517 35.387,170.281 28.861,165.007 25.287,157.32 23.416,149.159 H 8.636 a 4.687,4.687 0 0 0 -4.695,4.694 v 183.389 c 0,2.597 2.11,4.548 4.694,4.364 L 260.85,323.701 c 1.239,-0.093 2.333,-0.805 3.045,-1.859 -18.459,-0.673 -29.811,-6.857 -37.049,-13.264 -14.187,-12.539 -11.735,-24.88 -27.029,-33.108 z"
         opacity="0.48"
         id="path16" />
      <path
         fill="url(#paint6_linear_5756_22924)"
         d="m 253.268,323.199 -249.327,18.406 108.71,19.514 c 1.239,0.224 2.505,0.277 3.758,0.171 L 374.912,339.483 257.224,323.318 a 18.043,18.043 0 0 0 -3.956,-0.119 z"
         id="path17"
         style="fill:url(#paint6_linear_5756_22924)" />
      <path
         fill="url(#paint7_linear_5756_22924)"
         d="m 40.32,342.067 207.57,-15.558 64.251,8.755 -205.791,16.626 z"
         opacity="0.3"
         id="path18"
         style="fill:url(#paint7_linear_5756_22924)" />
      <path
         fill="#ffffff"
         d="M 246.979,301.616 V 56.284 L 39.409,52.698 v 263.131 c 0,5.301 -3.85,9.836 -9.085,10.693 l 205.5,-12.974 c 6.276,-0.422 11.155,-5.643 11.155,-11.932 z"
         id="path19" />
      <path
         fill="url(#paint8_linear_5756_22924)"
         d="m 235.815,192.537 -85.979,2.518 v -55.917 l 85.979,-0.897 z"
         id="path20"
         style="fill:url(#paint8_linear_5756_22924)" />
      <path
         fill="#e6eaef"
         d="m 142.214,195.279 -88.062,2.571 v -57.737 l 88.062,-0.896 z m 93.6,57.473 -181.662,9.124 v -57.737 l 181.662,-5.682 z M 124.504,128.115 235.811,127.39 V 72.106 L 124.504,70.682 Z"
         id="path21" />
      <path
         fill="url(#paint9_linear_5756_22924)"
         d="m 337.602,133.878 c 6.237,3.164 14.068,0.264 17.496,-6.487 3.429,-6.751 1.148,-14.794 -5.076,-17.958 a 11.229,11.229 0 0 0 -0.989,-0.435 77.95,77.95 0 0 0 2.611,-11.26 c 0.356,0 0.712,-0.013 1.081,-0.04 7.107,-0.632 12.763,-7.172 12.605,-14.595 -0.145,-7.423 -6.039,-12.935 -13.145,-12.302 -0.37,0.04 -0.739,0.092 -1.095,0.158 A 72.78,72.78 0 0 0 348.045,60.2 c 0.329,-0.197 0.646,-0.395 0.975,-0.606 6.078,-4.259 8.03,-12.67 4.351,-18.788 -3.678,-6.118 -11.603,-7.621 -17.694,-3.35 -0.316,0.225 -0.606,0.449 -0.897,0.7 a 64.262,64.262 0 0 0 -7.884,-7.371 c 0.198,-0.33 0.395,-0.66 0.58,-1.015 3.428,-6.751 7.911,-14.121 1.622,-17.194 -14.53,-7.093 -20.766,-1.015 -24.195,5.723 a 18.8,18.8 0 0 0 -0.474,1.055 65.366,65.366 0 0 0 -10.601,-2.03 c 0.027,-0.37 0.04,-0.752 0.027,-1.135 -0.146,-7.423 2.056,-11.444 -5.09,-11.59 -15.571,-0.303 -20.819,6.461 -20.674,13.884 a 17,17 0 0 0 0.079,1.148 72.675,72.675 0 0 0 -10.482,3.889 9.904,9.904 0 0 0 -0.527,-0.976 c -3.679,-6.117 -11.603,-7.62 -17.694,-3.349 -6.092,4.26 -8.03,12.671 -4.351,18.789 0.184,0.316 0.395,0.606 0.606,0.896 a 79.358,79.358 0 0 0 -7.555,8.755 c -0.303,-0.184 -0.606,-0.369 -0.936,-0.54 -6.236,-3.165 -14.068,-0.264 -17.496,6.487 -3.428,6.75 -1.147,14.793 5.076,17.958 0.316,0.158 0.659,0.303 0.989,0.435 a 78.1,78.1 0 0 0 -2.611,11.26 c -0.356,0 -0.712,0.013 -1.081,0.04 -7.107,0.632 -12.763,7.172 -12.605,14.595 0.145,7.423 6.039,12.934 13.146,12.301 0.369,-0.039 0.738,-0.092 1.094,-0.158 a 72.657,72.657 0 0 0 3.046,10.759 c -0.33,0.198 -0.646,0.396 -0.976,0.607 -6.078,4.258 -8.03,12.67 -4.351,18.788 3.679,6.118 15.888,8.953 21.966,4.694 0.316,-0.224 -3.679,-1.793 -3.388,-2.031 a 64.251,64.251 0 0 0 7.884,7.371 c -0.198,0.329 -0.395,0.659 -0.58,1.015 -3.428,6.751 -1.147,14.793 5.076,17.958 6.237,3.164 14.068,0.264 17.497,-6.487 0.171,-0.356 0.329,-0.699 0.474,-1.055 a 65.4,65.4 0 0 0 10.601,2.031 c -0.026,0.369 -0.04,0.751 -0.027,1.133 0.146,7.424 6.039,12.935 13.146,12.302 7.107,-0.633 12.763,-7.173 12.605,-14.596 a 17.72,17.72 0 0 0 -0.079,-1.147 72.65,72.65 0 0 0 10.482,-3.889 c 0.158,0.329 0.329,0.659 0.527,0.975 3.679,6.118 11.603,7.621 17.694,3.349 6.092,-4.258 8.03,-12.67 4.351,-18.788 -0.184,-0.317 -0.395,-0.607 -0.606,-0.897 a 79.496,79.496 0 0 0 7.555,-8.755 c 0.342,0.172 0.646,0.356 0.962,0.528 z m -77.699,0.975 c -22.638,-11.497 -30.892,-40.675 -18.445,-65.186 12.446,-24.51 40.873,-35.059 63.511,-23.561 22.639,11.497 30.893,40.675 18.446,65.186 -12.446,24.511 -40.886,35.059 -63.512,23.561 z"
         id="path22"
         style="fill:url(#paint9_linear_5756_22924)" />
      <path
         fill="url(#paint10_linear_5756_22924)"
         d="m 352.736,97.685 c 7.106,-0.633 12.763,-7.172 12.605,-14.596 -0.145,-7.423 -6.039,-12.934 -13.146,-12.301 -0.369,0.04 -0.738,0.092 -1.094,0.158 a 72.784,72.784 0 0 0 -3.046,-10.759 c 0.33,-0.184 0.646,-0.395 0.976,-0.606 6.078,-4.259 13.607,-14.57 9.322,-20.265 -8.149,-10.825 -16.574,-6.145 -22.665,-1.873 -0.317,0.224 -0.607,0.449 -0.897,0.7 a 63.54,63.54 0 0 0 -7.898,-7.371 c 0.198,-0.33 0.396,-0.66 0.58,-1.015 1.86,-3.68 2.031,-7.727 0.805,-11.168 a 2054.685,2054.685 0 0 0 -17.365,31.169 c 18.05,13.238 23.799,39.304 12.513,61.534 -9.559,18.841 -28.572,29.416 -47.136,28.084 -0.831,2.149 -1.635,4.311 -2.532,6.434 -2.4,5.775 -5.142,11.418 -7.871,17.075 1.727,0.329 3.454,0.58 5.181,0.764 -0.026,0.37 -0.039,0.752 -0.026,1.134 0.145,7.423 4.654,13.739 17.549,13.053 7.133,-0.382 8.359,-7.924 8.201,-15.347 a 16.363,16.363 0 0 0 -0.079,-1.147 72.654,72.654 0 0 0 10.482,-3.89 c 0.158,0.33 0.33,0.66 0.527,0.976 3.679,6.118 16.468,8.715 22.56,4.457 6.091,-4.259 3.164,-13.779 -0.514,-19.883 -0.185,-0.317 -0.396,-0.607 -0.607,-0.897 a 79.39,79.39 0 0 0 7.555,-8.755 c 0.303,0.185 0.607,0.37 0.936,0.541 6.237,3.164 14.069,0.264 17.497,-6.487 3.428,-6.751 1.147,-14.793 -5.077,-17.958 a 11.34,11.34 0 0 0 -0.988,-0.435 78.081,78.081 0 0 0 2.61,-11.26 c 0.317,-0.026 0.673,-0.026 1.042,-0.066 z"
         id="path23"
         style="fill:url(#paint10_linear_5756_22924)" />
      <path
         fill="url(#paint11_linear_5756_22924)"
         d="m 359.435,98.45 c 7.106,-0.633 12.763,-7.173 12.604,-14.596 -0.145,-7.423 -6.038,-12.934 -13.145,-12.301 -0.369,0.04 -0.738,0.092 -1.094,0.158 a 72.784,72.784 0 0 0 -3.046,-10.759 c 0.33,-0.198 0.659,-0.395 0.976,-0.606 6.078,-4.26 8.029,-12.671 4.351,-18.789 -3.679,-6.118 -11.603,-7.62 -17.694,-3.349 -0.317,0.224 -0.607,0.448 -0.897,0.699 a 64.35,64.35 0 0 0 -7.885,-7.37 c 0.198,-0.33 0.396,-0.66 0.581,-1.016 3.428,-6.75 1.147,-14.793 -5.077,-17.957 -6.236,-3.165 -14.068,-0.264 -17.496,6.486 -0.171,0.356 -0.33,0.7 -0.475,1.055 a 65.354,65.354 0 0 0 -10.6,-2.03 c 0.026,-0.37 0.039,-0.752 0.026,-1.134 -0.145,-7.423 -6.039,-12.935 -13.145,-12.302 -7.107,0.633 -12.763,7.173 -12.605,14.596 0.013,0.382 0.039,0.765 0.079,1.147 a 72.688,72.688 0 0 0 -10.482,3.89 c -0.158,-0.33 -0.33,-0.66 -0.527,-0.976 -3.679,-6.118 -11.603,-7.62 -17.695,-3.349 -6.091,4.259 -8.029,12.67 -4.351,18.789 0.185,0.316 0.396,0.606 0.607,0.896 a 79.36,79.36 0 0 0 -7.555,8.755 c -0.303,-0.185 -0.607,-0.37 -0.936,-0.54 -6.237,-3.165 -14.069,-0.264 -17.497,6.486 -3.428,6.751 -1.147,14.794 5.077,17.958 0.329,0.158 0.659,0.303 0.988,0.435 a 78.096,78.096 0 0 0 -2.61,11.26 c -0.356,0 -0.712,0.013 -1.081,0.04 -7.107,0.633 -12.763,7.172 -12.605,14.595 0.145,7.424 6.039,12.935 13.145,12.302 a 9.851,9.851 0 0 0 1.095,-0.158 72.688,72.688 0 0 0 3.045,10.759 c -0.329,0.197 -0.646,0.395 -0.975,0.606 -6.092,4.259 -8.03,12.671 -4.351,18.789 3.678,6.117 11.602,7.621 17.694,3.349 0.316,-0.225 0.606,-0.449 0.896,-0.699 a 64.325,64.325 0 0 0 7.885,7.37 c -0.198,0.33 -0.396,0.659 -0.58,1.015 -3.428,6.751 -1.147,14.794 5.076,17.958 6.236,3.165 14.068,0.264 17.496,-6.487 0.172,-0.356 0.33,-0.698 0.475,-1.054 a 65.397,65.397 0 0 0 10.601,2.03 c -0.027,0.369 -0.04,0.752 -0.027,1.134 0.145,7.423 6.039,12.934 13.146,12.301 7.106,-0.632 12.763,-7.172 12.604,-14.595 a 16.321,16.321 0 0 0 -0.079,-1.147 72.773,72.773 0 0 0 10.482,-3.89 c 0.159,0.33 0.33,0.659 0.528,0.976 3.678,6.118 11.603,7.621 17.694,3.349 6.091,-4.259 8.03,-12.671 4.351,-18.789 a 10.82,10.82 0 0 0 -0.607,-0.896 79.283,79.283 0 0 0 7.555,-8.755 c 0.304,0.184 0.607,0.369 0.937,0.54 6.236,3.165 14.068,0.264 17.496,-6.487 3.428,-6.75 1.147,-14.793 -5.076,-17.957 a 10.785,10.785 0 0 0 -0.989,-0.435 78.134,78.134 0 0 0 2.61,-11.26 c 0.356,0 0.712,0 1.082,-0.04 z m -29.324,13.607 c -12.446,24.511 -40.873,35.059 -63.511,23.561 -22.639,-11.497 -30.893,-40.675 -18.446,-65.186 12.446,-24.51 40.873,-35.059 63.512,-23.561 22.625,11.497 30.892,40.675 18.445,65.186 z"
         id="path24"
         style="fill:url(#paint11_linear_5756_22924)" />
      <g
         mask="url(#mask3_5756_22924)"
         id="g39">
        <path
           fill="url(#paint12_linear_5756_22924)"
           d="m 359.581,117.119 c 1.2,0.448 3.073,1.002 5.354,0.976 4.113,-0.04 5.287,-1.873 8.412,-1.134 2.426,0.58 5.142,2.505 5.142,2.505 -0.014,0.013 -3.191,1.912 -6.355,2.821 -2.413,0.699 -4.365,0.673 -5.775,0.66 -3.138,-0.053 -6.382,-0.106 -7.331,-1.991 -0.172,-0.356 -0.66,-1.569 0.553,-3.837 z"
           id="path26"
           style="fill:url(#paint12_linear_5756_22924)" />
        <path
           fill="url(#paint13_linear_5756_22924)"
           d="m 305.883,150.635 c 1.622,8.122 3.244,16.257 4.865,24.379 a 232.26,232.26 0 0 0 -7.12,25.526 c -7.238,33.147 -6.065,62.694 -2.848,85.148 l -5.142,2.848 c -5.234,-11.787 -11.826,-29.363 -15.518,-51.487 -4.364,-26.133 -2.703,-46.728 -3.916,-46.754 -1.16,-0.026 -3.758,18.868 -3.033,40.32 0.765,22.678 5.011,41.216 8.755,53.9 -2.162,0.474 -4.311,0.962 -6.474,1.437 -8.781,-16.152 -18.05,-38.329 -22.071,-65.529 -2.795,-18.894 -6.197,-43.998 5.59,-70.421 1.174,-2.637 5.393,-8.557 6.171,-10.007 14.622,2.294 26.119,8.359 40.741,10.64 z"
           id="path27"
           style="fill:url(#paint13_linear_5756_22924)" />
        <path
           fill="url(#paint14_linear_5756_22924)"
           d="m 303.618,200.54 a 235.177,235.177 0 0 1 7.12,-25.526 c -1.621,-8.122 -3.243,-16.257 -4.865,-24.379 -14.622,-2.281 -26.119,-8.346 -40.741,-10.627 -0.778,1.45 -4.997,7.37 -6.171,10.007 -3.968,8.913 -6.21,17.668 -7.344,26.08 28.097,-1.266 36.43,4.311 38.856,9.625 3.863,8.465 -6.685,17.549 -2.254,34.795 1.331,5.182 3.138,7.7 3.573,14.24 0.553,8.583 -2.215,9.519 -2.36,18.274 -0.159,9.585 3.019,17.444 5.63,23.891 a 83.238,83.238 0 0 0 4.522,9.427 c 0.395,-0.224 0.791,-0.435 1.187,-0.659 -3.218,-22.454 -4.391,-51.988 2.847,-85.148 z"
           opacity="0.25"
           id="path28"
           style="fill:url(#paint14_linear_5756_22924)" />
        <path
           fill="url(#paint15_linear_5756_22924)"
           d="m 281.026,37.627 c 1.015,1.108 -0.145,2.848 0.198,8.729 a 42.45,42.45 0 0 0 0.896,6.5 c 0.198,1.437 0.422,2.769 0.66,3.942 0.171,0.857 0.329,1.53 0.527,2.242 0.369,1.318 0.844,2.61 1.398,3.837 0.039,0.079 0,0.171 -0.066,0.224 0,0 -0.013,0 -0.013,0.013 -0.093,0.04 -0.185,0 -0.225,-0.092 a 28.44,28.44 0 0 1 -1.41,-3.89 38.49,38.49 0 0 1 -0.541,-2.255 95.974,95.974 0 0 1 -0.356,-1.977 c 0,1.859 0.171,3.902 1.108,6.566 2.848,8.056 -3.007,14.16 -8.03,14.899 -5.801,0.857 -10.232,-3.35 -11.616,-4.734 -5.551,-5.577 -7.529,-15.413 -3.652,-23.152 5.076,-10.166 18.617,-13.568 21.122,-10.852 z"
           id="path29"
           style="fill:url(#paint15_linear_5756_22924)" />
        <path
           fill="url(#paint16_linear_5756_22924)"
           d="m 218.082,108.443 c 0.554,3.376 2.808,14.807 11.563,19.567 14.424,7.845 39.753,-6.58 42.733,-25.434 2.281,-14.411 -8.716,-29.93 -14.781,-29.046 -7.621,1.12 -4.179,27.609 -19.197,35.243 -6.883,3.494 -14.859,1.635 -20.318,-0.33 z"
           id="path30"
           style="fill:url(#paint16_linear_5756_22924)" />
        <path
           fill="url(#paint17_linear_5756_22924)"
           d="m 267.119,47.107 c 0.158,-0.95 0.896,-4.825 4.087,-7.555 6.078,-5.155 16.93,-2.65 23.482,2.004 6.857,4.866 4.642,8.953 11.458,14.438 7.397,5.96 11.814,2.57 21.808,8.03 3.929,2.148 14.53,7.937 16.297,18.498 1.529,9.124 -4.022,18.999 -11.603,23.377 -12.974,7.489 -31.143,-1.596 -40.227,-10.746 -8.702,-8.768 -3.745,-11.656 -16.626,-29.007 -4.655,-6.263 -9.823,-11.945 -8.676,-19.039 z"
           id="path31"
           style="fill:url(#paint17_linear_5756_22924)" />
        <path
           fill="url(#paint18_linear_5756_22924)"
           d="m 385.571,157.623 c -1.477,2.967 -10.205,-2.558 -18.631,2.571 -7.779,4.734 -5.313,12.473 -12.881,18.512 -8.663,6.935 -21.597,4.483 -27.267,3.401 -12.275,-2.32 -12.631,-7.225 -26.884,-10.983 -11.233,-2.953 -20.898,-2.505 -25.367,-2.267 -18.354,0.989 -24.775,7.093 -28.018,3.784 -0.581,-0.594 -0.897,-1.319 -0.976,-2.189 -0.224,-2.11 0.949,-4.984 2.716,-8.465 5.116,-10.086 15.242,-25.275 11.115,-41.928 -2.255,-9.071 -7.014,-13.079 -7.173,-24.682 -0.118,-9.23 2.835,-16.837 5.393,-21.874 4.588,-1.977 11.88,-4.496 21.109,-5.01 9.216,-0.514 15.65,-1.12 20.067,2.65 7.252,6.21 3.178,16.534 5.248,29.89 0.607,3.916 1.74,8.109 3.837,12.526 1.173,2.466 9.203,18.762 23.851,21.966 8.28,1.807 10.456,-2.36 20.068,-1.898 17.839,0.87 33.002,16.322 33.938,22.453 v 0.014 c 0.105,0.619 0.053,1.134 -0.145,1.529 z"
           id="path32"
           style="fill:url(#paint18_linear_5756_22924)" />
        <path
           fill="url(#paint19_linear_5756_22924)"
           d="m 277.677,55.65 c -1.12,3.033 -1.951,6.778 -0.132,9.046 1.108,1.384 2.782,2.043 4.417,2.65 3.877,1.45 5.512,0.527 6.355,1.569 1.86,2.28 -1.714,12.09 -9.031,13.673 -7.291,1.569 -14.794,-5.762 -14.029,-9.27 0.686,-3.164 8.043,-2.953 8.939,-6.961 0.449,-2.017 -0.962,-4.048 -2.175,-5.406 l -0.857,0.172 6.513,-5.472 z"
           id="path33"
           style="fill:url(#paint19_linear_5756_22924)" />
        <path
           fill="url(#paint20_linear_5756_22924)"
           d="m 288.329,68.915 c -0.843,-1.042 -2.478,-0.119 -6.355,-1.57 -1.648,-0.619 -3.309,-1.278 -4.417,-2.65 -1.819,-2.267 -0.989,-5.998 0.132,-9.044 l -6.513,5.458 0.857,-0.171 c 0.949,1.081 2.03,2.584 2.215,4.166 0.54,0.304 1.015,0.647 1.358,0.99 -0.752,2.188 -0.897,4.02 -0.897,5.194 -0.013,1.833 -0.013,3.204 0.897,4.39 0.989,1.306 2.492,1.636 3.81,1.939 2.914,0.66 5.525,0.066 7.213,-0.527 2.07,-3.244 2.742,-6.896 1.7,-8.175 z"
           opacity="0.4"
           id="path34"
           style="fill:url(#paint20_linear_5756_22924)" />
        <path
           fill="url(#paint21_linear_5756_22924)"
           d="m 275.82,58.762 c 0,0 -0.369,3.718 -4.061,3.745 -4.536,0.026 -5.05,-11.96 -3.942,-12.645 1.279,-0.79 2.399,1.147 5.379,0.475 1.253,-0.29 2.334,-1.899 2.98,-0.158 0.725,1.977 0.118,5.484 0.118,5.484 0,0 1.082,-0.883 1.24,0.185 0.224,1.385 -0.831,2.255 -1.714,2.914 z"
           id="path35"
           style="fill:url(#paint21_linear_5756_22924)" />
        <path
           fill="url(#paint22_linear_5756_22924)"
           d="m 268.635,45.736 c -1.437,1.464 -2.242,4.325 -1.24,5.749 1.437,2.056 5.683,-0.093 7.41,2.426 0.765,1.107 0.712,2.637 1.108,2.61 0.329,-0.026 0.514,-1.08 0.712,-1.951 1.041,-4.813 2.241,-5.353 1.872,-6.738 -0.738,-2.795 -6.896,-5.115 -9.862,-2.096 z"
           id="path36"
           style="fill:url(#paint22_linear_5756_22924)" />
        <path
           fill="url(#paint23_linear_5756_22924)"
           d="m 291.575,80.623 c -0.62,-7 -2.888,-10.073 -1.24,-11.59 2.545,-2.333 10.614,2.585 13.001,4.075 13.303,8.254 17.892,17.523 24.721,24.8 5.907,6.303 16.046,13.845 34.334,17.669 l -2.017,8.583 c -16.35,4.074 -25.777,1.081 -31.301,-2.268 -11.049,-6.698 -13.924,-19.329 -26.502,-21.201 -5.3,-0.791 -8.702,0.857 -11.141,-1.82 -2.993,-3.256 1.081,-7.884 0.145,-18.248 z"
           id="path37"
           style="fill:url(#paint23_linear_5756_22924)" />
        <path
           fill="url(#paint24_linear_5756_22924)"
           d="m 206.703,112.715 c 0.29,-0.936 1.042,-2.861 2.901,-4.074 3.837,-2.492 9.902,-0.33 10.218,1.701 0.211,1.331 -1.938,3.243 -3.982,3.401 -1.832,0.159 -2.61,-1.186 -5.115,-1.516 -1.635,-0.198 -3.059,0.145 -4.022,0.488 z"
           id="path38"
           style="fill:url(#paint24_linear_5756_22924)" />
        <path
           fill="url(#paint25_linear_5756_22924)"
           d="m 385.531,157.333 c -1.464,2.966 -10.192,-2.558 -18.63,2.571 -7.793,4.733 -5.327,12.473 -12.882,18.512 -8.676,6.922 -21.61,4.482 -27.266,3.401 -12.276,-2.32 -12.632,-7.225 -26.884,-10.983 -11.234,-2.953 -20.899,-2.505 -25.368,-2.268 -18.354,0.989 -24.775,7.094 -28.018,3.784 a 3.444,3.444 0 0 1 -0.95,-1.885 c -0.356,-2.11 0.792,-5.01 2.585,-8.57 0.052,0.039 0.092,0.079 0.132,0.105 1.397,1.2 3.006,2.136 4.852,2.585 10.732,2.597 16.771,-14.108 32.764,-14.965 10.377,-0.541 12.486,6.249 27.267,6.065 6.948,-0.093 17.14,-1.727 17.799,-5.485 0.831,-4.799 -14.978,-6.487 -21.017,-20.068 -2.65,-5.933 -0.909,-8.491 -4.733,-14.398 -4.654,-7.185 -11.405,-8.688 -10.798,-11.932 0.435,-2.255 4.126,-3.942 7.278,-3.52 0.83,0.105 1.621,0.369 2.36,0.751 a 44.851,44.851 0 0 0 3.837,12.526 c 1.173,2.466 9.203,18.762 23.851,21.966 8.28,1.806 10.456,-2.36 20.068,-1.899 17.839,0.871 33.001,16.323 33.938,22.454 v 0.013 c 0.052,0.488 -0.014,0.91 -0.185,1.24 z"
           opacity="0.3"
           id="path39"
           style="fill:url(#paint25_linear_5756_22924)" />
      </g>
      <path
         fill="url(#paint26_linear_5756_22924)"
         d="m 160.542,332.851 c 7.239,3.679 16.336,0.303 20.318,-7.542 3.982,-7.845 1.332,-17.18 -5.907,-20.858 a 11.01,11.01 0 0 0 -1.147,-0.501 92.688,92.688 0 0 0 3.046,-13.093 c 0.409,0 0.831,-0.013 1.253,-0.04 8.267,-0.738 14.819,-8.332 14.648,-16.955 -0.171,-8.623 -7.014,-15.031 -15.268,-14.293 -0.435,0.04 -0.857,0.106 -1.279,0.185 a 84.067,84.067 0 0 0 -3.534,-12.5 14.47,14.47 0 0 0 1.134,-0.712 c 7.067,-4.957 9.335,-14.727 5.05,-21.834 -4.285,-7.106 -13.488,-8.847 -20.555,-3.902 a 19.7,19.7 0 0 0 -1.042,0.804 75.196,75.196 0 0 0 -9.163,-8.557 c 0.237,-0.383 0.461,-0.765 0.672,-1.174 3.982,-7.845 9.19,-16.402 1.886,-19.975 -16.89,-8.24 -24.129,-1.186 -28.111,6.659 -0.211,0.408 -0.382,0.817 -0.553,1.226 a 73.487,73.487 0 0 0 -12.315,-2.347 c 0.026,-0.435 0.039,-0.87 0.039,-1.319 -0.171,-8.623 2.387,-13.303 -5.906,-13.461 -18.09,-0.356 -24.182,7.502 -24.01,16.125 0.013,0.448 0.053,0.896 0.092,1.331 a 84.005,84.005 0 0 0 -12.17,4.523 13.284,13.284 0 0 0 -0.606,-1.134 c -4.285,-7.107 -13.475,-8.847 -20.555,-3.903 -7.067,4.958 -9.335,14.728 -5.05,21.834 0.224,0.37 0.461,0.699 0.699,1.042 a 90.792,90.792 0 0 0 -8.768,10.179 12.823,12.823 0 0 0 -1.081,-0.62 c -7.239,-3.679 -16.337,-0.303 -20.318,7.542 -3.982,7.845 -1.332,17.18 5.907,20.858 0.369,0.185 0.764,0.356 1.146,0.501 a 92.908,92.908 0 0 0 -3.045,13.08 c -0.409,0 -0.83,0.013 -1.253,0.039 -8.267,0.739 -14.82,8.333 -14.648,16.956 0.171,8.623 7.014,15.031 15.268,14.293 0.435,-0.04 0.857,-0.106 1.279,-0.185 a 84.031,84.031 0 0 0 3.534,12.499 c -0.383,0.225 -0.752,0.449 -1.134,0.712 -7.068,4.958 -9.335,14.728 -5.05,21.835 4.285,7.106 18.459,10.403 25.526,5.458 0.356,-0.25 -4.272,-2.083 -3.93,-2.36 a 75.264,75.264 0 0 0 9.164,8.557 c -0.237,0.382 -0.461,0.765 -0.672,1.174 -3.982,7.845 -1.332,17.179 5.907,20.858 7.238,3.679 16.336,0.303 20.318,-7.542 0.21,-0.408 0.382,-0.817 0.553,-1.226 a 73.48,73.48 0 0 0 12.315,2.347 c -0.026,0.435 -0.04,0.87 -0.04,1.318 0.172,8.623 7.015,15.031 15.269,14.293 8.267,-0.738 14.819,-8.333 14.648,-16.956 a 22.206,22.206 0 0 0 -0.092,-1.332 84.637,84.637 0 0 0 12.183,-4.522 c 0.184,0.382 0.382,0.765 0.606,1.134 4.285,7.107 13.475,8.847 20.555,3.903 7.068,-4.958 9.335,-14.728 5.05,-21.835 -0.224,-0.369 -0.461,-0.698 -0.699,-1.041 a 90.772,90.772 0 0 0 8.768,-10.179 c 0.33,0.224 0.686,0.435 1.068,0.633 z m -90.277,1.134 c -26.29,-13.343 -35.89,-47.255 -21.438,-75.721 14.45,-28.466 47.492,-40.728 73.782,-27.372 26.291,13.343 35.89,47.255 21.439,75.721 -14.464,28.466 -47.492,40.728 -73.783,27.372 z"
         id="path40"
         style="fill:url(#paint26_linear_5756_22924)" />
      <path
         fill="url(#paint27_linear_5756_22924)"
         d="m 178.102,290.817 c 8.267,-0.738 14.82,-8.333 14.648,-16.955 -0.171,-8.623 -7.014,-15.031 -15.268,-14.293 -0.435,0.04 -0.857,0.106 -1.279,0.185 a 84.064,84.064 0 0 0 -3.533,-12.5 c 0.382,-0.224 0.764,-0.448 1.134,-0.712 7.067,-4.957 15.808,-16.916 10.824,-23.548 -9.466,-12.578 -19.263,-7.133 -26.33,-2.189 a 19.82,19.82 0 0 0 -1.041,0.805 75.2,75.2 0 0 0 -9.164,-8.557 c 0.237,-0.383 0.462,-0.765 0.672,-1.174 2.163,-4.272 2.361,-8.979 0.923,-12.974 a 2263.515,2263.515 0 0 0 -20.172,36.219 c 20.977,15.374 27.648,45.66 14.542,71.489 -11.114,21.887 -33.199,34.175 -54.756,32.633 -0.963,2.491 -1.912,4.997 -2.94,7.475 -2.796,6.711 -5.974,13.278 -9.151,19.831 a 72.28,72.28 0 0 0 6.025,0.883 c -0.026,0.435 -0.04,0.87 -0.04,1.318 0.172,8.623 5.407,15.967 20.385,15.163 8.28,-0.435 9.704,-9.203 9.532,-17.839 a 21.355,21.355 0 0 0 -0.092,-1.332 84.03,84.03 0 0 0 12.17,-4.522 c 0.184,0.382 0.382,0.764 0.606,1.134 4.285,7.106 19.132,10.126 26.199,5.168 7.067,-4.957 3.678,-16.006 -0.607,-23.1 -0.224,-0.369 -0.461,-0.699 -0.699,-1.041 a 90.668,90.668 0 0 0 8.768,-10.179 c 0.356,0.224 0.712,0.435 1.082,0.619 7.238,3.679 16.336,0.304 20.318,-7.541 3.981,-7.845 1.331,-17.18 -5.907,-20.859 a 12.762,12.762 0 0 0 -1.147,-0.501 92.78,92.78 0 0 0 3.045,-13.079 c 0.422,0.013 0.831,0.013 1.253,-0.027 z"
         id="path41"
         style="fill:url(#paint27_linear_5756_22924)" />
      <path
         fill="url(#paint28_linear_5756_22924)"
         d="m 168.32,333.734 c 7.238,3.679 16.336,0.303 20.318,-7.542 3.981,-7.845 1.331,-17.179 -5.907,-20.858 a 11.104,11.104 0 0 0 -1.147,-0.501 92.514,92.514 0 0 0 3.045,-13.093 c 0.409,0 0.831,-0.013 1.253,-0.039 8.267,-0.739 14.82,-8.333 14.648,-16.956 -0.171,-8.623 -7.014,-15.031 -15.268,-14.293 -0.435,0.04 -0.857,0.106 -1.279,0.185 a 84.051,84.051 0 0 0 -3.533,-12.499 14.97,14.97 0 0 0 1.134,-0.712 c 7.067,-4.958 9.335,-14.728 5.05,-21.834 -4.286,-7.107 -13.475,-8.848 -20.556,-3.903 -0.356,0.25 -0.699,0.527 -1.041,0.804 a 75.284,75.284 0 0 0 -9.164,-8.557 c 0.237,-0.382 0.462,-0.765 0.673,-1.173 3.981,-7.845 1.331,-17.18 -5.907,-20.859 -7.239,-3.679 -16.336,-0.303 -20.318,7.542 -0.211,0.409 -0.383,0.817 -0.554,1.226 a 73.487,73.487 0 0 0 -12.315,-2.347 c 0.027,-0.435 0.04,-0.87 0.04,-1.318 -0.172,-8.623 -7.015,-15.031 -15.268,-14.293 -8.267,0.739 -14.82,8.333 -14.649,16.956 0.013,0.448 0.053,0.897 0.093,1.332 a 83.882,83.882 0 0 0 -12.17,4.522 13.465,13.465 0 0 0 -0.607,-1.134 c -4.285,-7.106 -13.488,-8.847 -20.555,-3.903 -7.067,4.958 -9.335,14.728 -5.05,21.835 0.224,0.369 0.462,0.698 0.7,1.041 a 90.772,90.772 0 0 0 -8.769,10.179 12.825,12.825 0 0 0 -1.081,-0.62 c -7.239,-3.678 -16.336,-0.303 -20.318,7.542 -3.982,7.845 -1.332,17.18 5.907,20.859 0.369,0.184 0.751,0.356 1.147,0.501 a 92.632,92.632 0 0 0 -3.046,13.092 c -0.409,0 -0.83,0.014 -1.252,0.04 -8.267,0.738 -14.82,8.333 -14.649,16.956 0.172,8.623 7.015,15.03 15.268,14.292 0.435,-0.039 0.857,-0.105 1.28,-0.184 a 84.111,84.111 0 0 0 3.533,12.499 14.62,14.62 0 0 0 -1.134,0.712 c -7.067,4.957 -9.335,14.727 -5.05,21.834 4.285,7.107 13.475,8.847 20.555,3.903 0.356,-0.251 0.7,-0.528 1.042,-0.805 a 75.194,75.194 0 0 0 9.164,8.558 16.78,16.78 0 0 0 -0.673,1.173 c -3.982,7.845 -1.332,17.18 5.907,20.859 7.238,3.678 16.336,0.303 20.318,-7.542 0.21,-0.409 0.382,-0.818 0.554,-1.226 a 73.48,73.48 0 0 0 12.314,2.346 c -0.026,0.436 -0.04,0.871 -0.04,1.319 0.172,8.623 7.015,15.031 15.269,14.292 8.267,-0.738 14.82,-8.332 14.648,-16.955 a 21.302,21.302 0 0 0 -0.092,-1.332 84.76,84.76 0 0 0 12.183,-4.523 c 0.185,0.383 0.382,0.765 0.606,1.134 4.286,7.107 13.475,8.847 20.556,3.903 7.067,-4.957 9.335,-14.727 5.05,-21.834 -0.225,-0.369 -0.462,-0.699 -0.699,-1.042 a 90.76,90.76 0 0 0 8.768,-10.178 c 0.343,0.211 0.699,0.421 1.068,0.619 z m -90.264,1.147 C 51.765,321.538 42.166,287.627 56.617,259.16 c 14.45,-28.466 47.492,-40.728 73.783,-27.372 26.291,13.344 35.889,47.255 21.439,75.721 -14.464,28.453 -47.493,40.715 -73.783,27.372 z"
         id="path42"
         style="fill:url(#paint28_linear_5756_22924)" />
      <g
         mask="url(#mask4_5756_22924)"
         id="g53">
        <path
           fill="url(#paint29_linear_5756_22924)"
           d="m 188.949,284.066 c 1.213,-0.395 2.835,-1.147 4.022,-2.663 1.041,-1.332 0.857,-2.096 1.793,-3.692 1.753,-2.98 4.957,-4.628 5.511,-4.14 0.514,0.462 -1.477,2.479 -0.659,3.863 0.369,0.62 2.228,0.646 3.626,0 0.804,-0.382 5.933,-5.893 7.634,-1.832 -0.449,0.949 -6.804,6.829 -9.111,8.438 a 11.748,11.748 0 0 1 -5.472,2.03 c -2.452,-0.659 -4.905,-1.331 -7.344,-2.004 z"
           id="path44"
           style="fill:url(#paint29_linear_5756_22924)" />
        <path
           fill="url(#paint30_linear_5756_22924)"
           d="m 81.323,246.977 c -1.371,0.514 -22.243,8.821 -26.528,30.602 -0.343,1.754 -3.705,20.476 8.992,33.688 14.227,14.82 41.638,14.45 52.516,2.07 2.531,-2.888 3.876,-6.092 4.628,-8.781 l -2.862,-7.608 c -3.494,-4.219 -8.253,-5.221 -10.798,-5.854 -6.263,-1.543 -10.996,1.252 -14.596,-1.78 -1.99,-1.675 -2.386,-4.074 -2.729,-6.223 -1.2,-7.318 2.927,-11.827 3.23,-16.35 0.224,-3.375 1.411,-10.772 -3.006,-15.598 -2.795,-3.072 -6.658,-3.902 -8.847,-4.166 z"
           id="path45"
           style="fill:url(#paint30_linear_5756_22924)" />
        <path
           fill="url(#paint31_linear_5756_22924)"
           d="m 141.525,325.783 a 207.79,207.79 0 0 1 6.975,31.921 c 5.459,39.739 -6.144,41.005 -3.982,85.043 0.686,14.055 -12.183,46.463 -13.317,47.189 a 12.92,12.92 0 0 1 -1.78,0.065 18.411,18.411 0 0 1 -4.535,-0.751 c -2.044,-0.356 -9.388,-20.265 -7.687,-32.092 1.2,-8.373 0.857,-17.365 0.158,-35.349 -0.118,-2.914 -7.568,-56.682 -7.568,-56.682 a 886.327,886.327 0 0 1 -7.133,49.931 c -7.265,42.126 -30.879,67.626 -32.118,68.035 -0.238,0.092 -2.466,0.896 -4.272,-0.291 -0.805,-0.527 -1.082,-1.213 -1.082,-1.213 -0.632,-0.501 0.185,-42.059 7.384,-73.347 10.456,-45.409 5.907,-56.023 9.216,-76.315 2.888,-17.562 59.741,-6.144 59.741,-6.144 z"
           id="path46"
           style="fill:url(#paint31_linear_5756_22924)" />
        <path
           fill="url(#paint32_linear_5756_22924)"
           d="m 99.292,243.43 c 6.949,-0.197 22.902,-2.65 31.684,5.248 0.158,0.132 -1.648,1.094 -0.765,2.136 a 57.609,57.609 0 0 1 6.21,8.9 c 1.859,3.309 3.534,7.159 5.221,12.895 2.98,10.126 3.837,18.749 4.114,22.506 1.608,21.123 0.013,30.879 -1.437,37.511 -6.276,3.231 -22.454,8.992 -41.717,6.131 -8.795,-1.305 -15.849,-4.232 -20.806,-6.856 4.997,-15.136 1.081,-23.245 -0.778,-30.707 -2.637,-10.654 -2.677,-9.85 -4.852,-18.301 -3.586,-13.963 -4.18,-28.216 -1.714,-31.143 6.658,-7.845 18.63,-8.135 24.84,-8.32 z"
           id="path47"
           style="fill:url(#paint32_linear_5756_22924)" />
        <path
           fill="url(#paint33_linear_5756_22924)"
           d="m 119.271,234.557 c 1.885,-3.771 0.646,-7.858 0.369,-8.728 -1.161,-3.692 -1.543,-4.233 -2.294,-4.971 l -1.055,-0.976 -0.132,-0.079 c -0.712,-0.422 -3.323,-1.015 -3.876,-1.002 -1.767,0.04 -4.905,6.606 -6.29,16.481 -0.145,0.356 -0.277,0.725 -0.422,1.094 a 75.689,75.689 0 0 0 -2.188,6.685 C 91.556,244.894 90,246.41 90,247.228 c 0.013,1.701 6.922,3.19 12.077,3.586 11.234,0.857 22.467,-2.888 22.27,-4.958 -0.093,-0.896 -2.374,-1.925 -11.893,-2.505 0.105,-1.582 0.224,-3.151 0.33,-4.733 0.764,-0.224 5.102,-1.279 6.487,-4.061 z"
           id="path48"
           style="fill:url(#paint33_linear_5756_22924)" />
        <path
           fill="#26264f"
           d="m 120.35,217.772 c -0.593,3.033 -2.65,5.986 -3.48,6.369 a 5.46,5.46 0 0 0 -1.332,0.989 1.414,1.414 0 0 0 -0.237,0.329 c -1.029,1.78 1.569,4.615 0.817,5.353 -0.54,0.541 -2.452,-0.685 -2.795,-0.198 -0.33,0.462 1.187,1.833 0.804,2.387 -0.29,0.422 -1.266,-0.198 -2.057,0.369 -0.395,0.29 -0.356,0.58 -0.909,1.569 -0.317,0.567 -0.726,1.16 -1.002,1.49 -1.385,1.582 -4.483,1.648 -4.918,0.831 -0.119,-0.225 0.052,-0.37 0.013,-1.068 0,0 -0.027,-0.646 -0.317,-1.437 -0.422,-1.134 -1.753,-2.15 -3.045,-3.521 -2.387,-2.531 -2.809,-4.364 -2.927,-4.984 a 8.705,8.705 0 0 1 -0.08,-0.501 c -0.29,-2.373 0.343,-5.656 1.741,-7.476 2.334,-3.059 5.814,-0.712 9.572,-3.467 4.325,-3.165 3.217,-8.861 5.274,-9.071 2.255,-0.225 5.973,6.447 4.878,12.037 z"
           id="path49" />
        <path
           fill="url(#paint34_linear_5756_22924)"
           d="m 115.168,229.889 c -0.54,-1.16 -2.03,-0.461 -2.294,0.857 -0.264,1.319 0.752,2.94 2.044,2.914 1.292,-0.013 0.988,-2.202 0.25,-3.771 z"
           id="path50"
           style="fill:url(#paint34_linear_5756_22924)" />
        <path
           fill="#26264f"
           d="m 114.997,227.569 1.292,2.571 c 0,0 1.332,3.098 2.703,1.806 1.121,-1.055 1.345,-0.989 1.398,-0.923 0.013,0.013 0.013,0.027 0.013,0.027 0.013,0 -0.013,-0.633 -0.04,-1.2 0.33,0.751 0.752,1.938 0.857,3.441 0.106,1.464 0.211,3.033 -0.857,4.325 -0.066,0.079 -1.226,1.437 -2.913,1.49 0,0 -0.66,0.026 -3.27,-0.976 0,0 3.349,-1.569 3.494,-2.07 0.382,-1.358 -1.385,-2.466 -2.255,-5.564 a 11.775,11.775 0 0 1 -0.422,-2.927 z"
           id="path51" />
        <path
           fill="url(#paint35_linear_5756_22924)"
           d="m 191.731,280.414 c 2.505,1.754 3.864,4.14 4.549,5.67 -1.846,4.338 -6.025,12.38 -14.701,18.3 -14.213,9.718 -35.032,10.047 -49.549,-1.041 -17.338,-13.238 -20.226,-38.645 -12.948,-49.51 0.844,-1.252 3.6,-5.366 7.872,-5.841 2.703,-0.303 6.381,0.818 12.183,7.621 12.103,14.174 7.832,23.021 14.978,27.174 10.745,6.211 26.686,-10.033 37.616,-2.373 z"
           id="path52"
           style="fill:url(#paint35_linear_5756_22924)" />
        <path
           fill="#f1f2ff"
           d="m 142.936,309.553 c -0.027,0 -0.053,0 -0.08,-0.013 -0.171,-0.04 -17.285,-3.969 -24.972,-25.17 a 0.408,0.408 0 0 1 0.237,-0.515 0.396,0.396 0 0 1 0.515,0.238 c 7.528,20.753 24.22,24.616 24.379,24.655 a 0.392,0.392 0 0 1 0.303,0.475 0.384,0.384 0 0 1 -0.382,0.33 z"
           id="path53" />
      </g>
      <path
         fill="url(#paint36_linear_5756_22924)"
         d="M 166.475,113.006 H 124.508 V 90.855 h 41.967 l -9.084,11.075 z"
         id="path54"
         style="fill:url(#paint36_linear_5756_22924)" />
      <path
         fill="url(#paint37_linear_5756_22924)"
         d="m 238.475,230.167 h -41.967 v -22.151 h 41.967 l -9.097,11.075 z"
         id="path55"
         style="fill:url(#paint37_linear_5756_22924)" />
      <path
         fill="url(#paint38_linear_5756_22924)"
         d="m 271.679,348.044 c 0,-18.079 -16.676,-32.193 -36.539,-31.547 -11.311,0.368 -21.153,5.467 -27.298,12.995 l -0.002,-0.007 -0.112,0.142 c -0.106,0.132 -0.208,0.266 -0.312,0.399 -0.19,0.243 -0.377,0.488 -0.56,0.735 a 31.983,31.983 0 0 0 -0.832,1.191 c -0.096,0.144 -0.193,0.287 -0.287,0.433 -0.187,0.291 -0.367,0.585 -0.544,0.882 -0.064,0.107 -0.131,0.212 -0.194,0.32 -0.233,0.402 -0.456,0.809 -0.671,1.221 -0.056,0.109 -0.108,0.22 -0.164,0.33 -0.156,0.309 -0.308,0.619 -0.453,0.933 -0.071,0.154 -0.139,0.31 -0.207,0.465 a 28.12,28.12 0 0 0 -0.868,2.204 c -0.054,0.153 -0.109,0.305 -0.159,0.459 -0.122,0.368 -0.234,0.739 -0.341,1.113 -0.022,0.078 -0.048,0.155 -0.069,0.233 -0.125,0.451 -0.237,0.906 -0.34,1.364 -0.03,0.135 -0.055,0.271 -0.083,0.407 -0.069,0.328 -0.133,0.658 -0.191,0.99 -0.029,0.169 -0.054,0.339 -0.08,0.509 a 26.017,26.017 0 0 0 -0.186,1.448 c -0.034,0.327 -0.059,0.655 -0.081,0.985 -0.01,0.153 -0.023,0.306 -0.031,0.46 -0.025,0.482 -0.04,0.965 -0.04,1.453 0,11.601 7.026,21.835 17.56,27.314 a 36.937,36.937 0 0 0 4.557,1.991 38.784,38.784 0 0 0 11.988,2.245 h 0.001 c 0.585,0.018 1.166,0.02 1.745,0.012 0.196,-0.003 0.389,-0.014 0.584,-0.019 0.383,-0.011 0.766,-0.023 1.146,-0.045 0.232,-0.014 0.462,-0.034 0.694,-0.052 0.339,-0.026 0.679,-0.051 1.016,-0.086 0.247,-0.025 0.492,-0.056 0.737,-0.086 0.319,-0.038 0.637,-0.078 0.953,-0.124 0.253,-0.037 0.503,-0.078 0.754,-0.12 a 38.73,38.73 0 0 0 1.673,-0.315 37.82,37.82 0 0 0 2.507,-0.62 c 0.247,-0.07 0.495,-0.14 0.74,-0.215 0.09,-0.028 0.183,-0.051 0.273,-0.079 l -0.006,-0.007 c 13.743,-4.304 23.722,-15.973 23.722,-29.911 z"
         id="path56"
         style="fill:url(#paint38_linear_5756_22924)" />
      <path
         fill="url(#paint39_linear_5756_22924)"
         d="m 268.95,348.048 c 0,18.032 -16.592,32.166 -36.355,31.589 -19.027,-0.556 -33.939,-14.639 -33.939,-31.473 0,-16.834 14.912,-30.966 33.939,-31.585 19.763,-0.642 36.355,13.436 36.355,31.469 z"
         id="path57"
         style="fill:url(#paint39_linear_5756_22924)" />
      <path
         fill="#e0e0e0"
         d="m 223.683,356.782 -14.109,-7.181 v -2.312 l 14.109,-8.17 v 3.936 l -9.761,5.214 9.761,4.593 z m 15.009,-20.85 -8.024,24.25 -4.031,-0.041 7.96,-24.154 z m 2.984,16.984 10.311,-4.706 -10.311,-5.275 v -4.006 l 15.037,8.241 v 2.422 l -15.037,7.313 z"
         id="path58" />
      <path
         fill="url(#paint40_linear_5756_22924)"
         d="m 241.19,371.79 c -4.288,-9.442 0.047,-18.166 -5.743,-24.222 -5.817,-6.083 -13.277,-0.397 -21.184,-5.264 -3.024,-1.862 -6.365,-5.423 -8.834,-12.769 -4.26,5.228 -6.773,11.676 -6.773,18.63 0,16.834 14.912,30.917 33.939,31.472 a 38.742,38.742 0 0 0 12.759,-1.746 c -1.973,-2.057 -3.275,-4.146 -4.164,-6.101 z"
         opacity="0.3"
         id="path59"
         style="fill:url(#paint40_linear_5756_22924)" />
      <path
         fill="url(#paint41_linear_5756_22924)"
         d="m 42.706,188.779 c 0,0 -5.089,-108.708 109.686,-124.633 l -12.018,-15.367 56.121,26.54 -45.131,23.766 4.282,-16.282 c -0.002,0 -91.843,22.384 -112.939,105.976 z"
         id="path60"
         style="fill:url(#paint41_linear_5756_22924)" />
      <path
         fill="url(#paint11_linear_5756_22924)"
         d="m 604.3851,89.71363 c 7.106,-0.633 12.763,-7.173 12.604,-14.596 -0.145,-7.423 -6.038,-12.934 -13.145,-12.301 -0.369,0.04 -0.738,0.092 -1.094,0.158 a 72.784,72.784 0 0 0 -3.046,-10.759 c 0.33,-0.198 0.659,-0.395 0.976,-0.606 6.078,-4.26 8.029,-12.671 4.351,-18.789 -3.679,-6.118 -11.603,-7.62 -17.694,-3.349 -0.317,0.224 -0.607,0.448 -0.897,0.699 a 64.35,64.35 0 0 0 -7.885,-7.37 c 0.198,-0.33 0.396,-0.66 0.581,-1.016 3.428,-6.75 1.147,-14.793 -5.077,-17.957 -6.236,-3.16499997 -14.068,-0.264 -17.496,6.486 -0.171,0.356 -0.33,0.7 -0.475,1.055 a 65.354,65.354 0 0 0 -10.6,-2.03 c 0.026,-0.37 0.039,-0.752 0.026,-1.134 -0.145,-7.42299997 -6.039,-12.935 -13.145,-12.302 -7.107,0.633 -12.763,7.173 -12.605,14.596 0.013,0.382 0.039,0.765 0.079,1.147 a 72.688,72.688 0 0 0 -10.482,3.89 c -0.158,-0.33 -0.33,-0.66 -0.527,-0.976 -3.679,-6.118 -11.603,-7.62 -17.695,-3.349 -6.091,4.259 -8.029,12.67 -4.351,18.789 0.185,0.316 0.396,0.606 0.607,0.896 a 79.36,79.36 0 0 0 -7.555,8.755 c -0.303,-0.185 -0.607,-0.37 -0.936,-0.54 -6.237,-3.165 -14.069,-0.264 -17.497,6.486 -3.428,6.751 -1.147,14.794 5.077,17.958 0.329,0.158 0.659,0.303 0.988,0.435 a 78.096,78.096 0 0 0 -2.61,11.26 c -0.356,0 -0.712,0.013 -1.081,0.04 -7.107,0.633 -12.763,7.172 -12.605,14.595 0.145,7.424 6.039,12.935 13.145,12.302 a 9.851,9.851 0 0 0 1.095,-0.158 72.688,72.688 0 0 0 3.045,10.759 c -0.329,0.197 -0.646,0.395 -0.975,0.606 -6.092,4.259 -8.03,12.671 -4.351,18.789 3.678,6.117 11.602,7.621 17.694,3.349 0.316,-0.225 0.606,-0.449 0.896,-0.699 a 64.325,64.325 0 0 0 7.885,7.37 c -0.198,0.33 -0.396,0.659 -0.58,1.015 -3.428,6.751 -1.147,14.794 5.076,17.958 6.236,3.165 14.068,0.264 17.496,-6.487 0.172,-0.356 0.33,-0.698 0.475,-1.054 a 65.397,65.397 0 0 0 10.601,2.03 c -0.027,0.369 -0.04,0.752 -0.027,1.134 0.145,7.423 6.039,12.934 13.146,12.301 7.106,-0.632 12.763,-7.172 12.604,-14.595 a 16.321,16.321 0 0 0 -0.079,-1.147 72.773,72.773 0 0 0 10.482,-3.89 c 0.159,0.33 0.33,0.659 0.528,0.976 3.678,6.118 11.603,7.621 17.694,3.349 6.091,-4.259 8.03,-12.671 4.351,-18.789 a 10.82,10.82 0 0 0 -0.607,-0.896 79.283,79.283 0 0 0 7.555,-8.755 c 0.304,0.184 0.607,0.369 0.937,0.54 6.236,3.165 14.068,0.264 17.496,-6.487 3.428,-6.75 1.147,-14.793 -5.076,-17.957 a 10.785,10.785 0 0 0 -0.989,-0.435 78.134,78.134 0 0 0 2.61,-11.26 c 0.356,0 0.712,0 1.082,-0.04 z m -29.324,13.607 c -12.446,24.511 -40.873,35.059 -63.511,23.561 -22.639,-11.497 -30.893,-40.675 -18.446,-65.186 12.446,-24.51 40.873,-35.059 63.512,-23.561 22.625,11.497 30.892,40.675 18.445,65.186 z"
         id="path24-8"
         style="fill:#f9ce1d" />
    </g>
    <text
       xml:space="preserve"
       style="font-size:33.7325px;line-height:1.25;font-family:sans-serif;fill:#673ab7;stroke-width:0.351382"
       x="149.14595"
       y="198.89368"
       id="text21-9-0"><tspan
         style="font-style:normal;font-variant:normal;font-weight:normal;font-stretch:normal;font-size:33.7325px;font-family:Impact;-inkscape-font-specification:Impact;fill:#673ab7;stroke-width:0.351382"
         x="149.14595"
         y="198.89368"
         id="tspan22-3">EDD</tspan></text>
  </g>
</svg>
